<svg xmlns="http://www.w3.org/2000/svg" width="103.963" height="122.941" viewBox="0 0 103.963 122.941">
    <defs>
        <clipPath id="c7qdhcb2ya">
            <path data-name="사각형 11771" style="fill:none" d="M0 0h103.963v122.941H0z"/>
        </clipPath>
    </defs>
    <g data-name="그룹 29819" style="clip-path:url(#c7qdhcb2ya)">
        <path data-name="패스 15560" d="M73.098 73.694a.852.852 0 0 1-.593-.239l-8.062-7.775a.855.855 0 1 1 1.186-1.23l8.063 7.774a.855.855 0 0 1-.593 1.47"/>
        <path data-name="패스 15561" d="M38.431 76.862a38.431 38.431 0 1 1 21.027-70.6.855.855 0 0 1-.936 1.43 36.731 36.731 0 1 0 8.924 8.232.855.855 0 1 1 1.35-1.049 38.057 38.057 0 0 1 8.066 23.56 38.474 38.474 0 0 1-38.431 38.427"/>
        <path data-name="패스 15562" d="m84.473 69.475 16.4 14.183a8.942 8.942 0 0 1 .913 12.613l-2.1 2.424a8.942 8.942 0 0 1-12.613.913l-16.4-14.183a8.942 8.942 0 0 1-.913-12.613l2.1-2.425a8.942 8.942 0 0 1 12.613-.913"/>
        <path data-name="패스 15563" d="M38.143 109.408c19.321 0 34.985 3.029 34.985 6.767s-15.663 6.767-34.985 6.767-34.985-3.03-34.985-6.767 15.663-6.767 34.985-6.767"/>
        <path data-name="패스 15564" d="M141.1 209.78a7.771 7.771 0 0 0-6.061-2.879 7.51 7.51 0 0 0-5.588 2.839l-1.341-1.059a9.238 9.238 0 0 1 6.878-3.488 9.347 9.347 0 0 1 7.387 3.448z" transform="translate(-96.83 -155.087)" style="fill:#ff754b"/>
        <path data-name="패스 15565" d="M105.148 122.606c1.431 0 2.591 1.547 2.591 3.455s-1.16 3.455-2.591 3.455-2.591-1.547-2.591-3.455 1.16-3.455 2.591-3.455" transform="translate(-77.515 -92.669)" style="fill:#ff754b"/>
        <path data-name="패스 15566" d="M194.77 123.782c1.431 0 2.591 1.547 2.591 3.455s-1.16 3.455-2.591 3.455-2.591-1.547-2.591-3.455 1.16-3.455 2.591-3.455" transform="translate(-145.254 -93.558)" style="fill:#ff754b"/>
    </g>
</svg>
