<svg xmlns="http://www.w3.org/2000/svg" width="36.82" height="42.106" viewBox="0 0 36.82 42.106">
    <defs>
        <clipPath id="e6rpa65gqa">
            <path data-name="사각형 11768" style="fill:none" d="M0 0h36.82v42.106H0z"/>
        </clipPath>
    </defs>
    <g data-name="그룹 29803" style="clip-path:url(#e6rpa65gqa)">
        <path data-name="패스 15514" d="M4.991 42.105a1.514 1.514 0 0 1-.469-.082 3.479 3.479 0 0 1-1.113-.666 9.882 9.882 0 0 1-2.247-2.944A9.883 9.883 0 0 1 .021 34.89a3.481 3.481 0 0 1 .086-1.294 1.165 1.165 0 0 1 .546-.744 1.165 1.165 0 0 1 .923-.025 3.483 3.483 0 0 1 1.113.666 9.885 9.885 0 0 1 2.247 2.944 9.886 9.886 0 0 1 1.141 3.523 3.482 3.482 0 0 1-.086 1.294 1.164 1.164 0 0 1-.546.744.964.964 0 0 1-.454.107m-3.882-8.927a.547.547 0 0 0-.257.058.763.763 0 0 0-.335.488 3.115 3.115 0 0 0-.07 1.133 9.453 9.453 0 0 0 1.094 3.364 9.453 9.453 0 0 0 2.142 2.815 3.112 3.112 0 0 0 .971.587.761.761 0 0 0 .592 0 .762.762 0 0 0 .335-.488 3.112 3.112 0 0 0 .07-1.133 9.456 9.456 0 0 0-1.094-3.364 9.456 9.456 0 0 0-2.142-2.815 3.113 3.113 0 0 0-.971-.587 1.09 1.09 0 0 0-.334-.06"/>
        <path data-name="패스 15515" d="M14.717 32.143a2.539 2.539 0 0 1-.514-.058 6.236 6.236 0 0 1-3.595-2.577 2.094 2.094 0 0 1-.288-.748.713.713 0 0 1 .628-.876 2.091 2.091 0 0 1 .8.033 6.235 6.235 0 0 1 3.595 2.577 2.091 2.091 0 0 1 .289.748.779.779 0 0 1-.114.581.779.779 0 0 1-.514.294 1.551 1.551 0 0 1-.287.025m-3.483-3.855a1.122 1.122 0 0 0-.207.018.3.3 0 0 0-.283.4 1.7 1.7 0 0 0 .234.591 5.819 5.819 0 0 0 3.313 2.375 1.7 1.7 0 0 0 .635.031.3.3 0 0 0 .283-.395 1.7 1.7 0 0 0-.234-.591 5.819 5.819 0 0 0-3.313-2.375 2.122 2.122 0 0 0-.427-.049"/>
        <path data-name="패스 15516" d="M5.421 42.013a.214.214 0 0 1-.1-.4l5.385-2.992a.214.214 0 1 1 .208.374l-5.385 2.992a.213.213 0 0 1-.1.027"/>
        <path data-name="패스 15517" d="M.784 33.412a.214.214 0 0 1-.088-.409 35.419 35.419 0 0 0 5.341-2.89.214.214 0 0 1 .265.336 35.773 35.773 0 0 1-5.429 2.944.213.213 0 0 1-.088.019"/>
        <path data-name="패스 15518" d="M11.25 37.899a.214.214 0 0 1-.213-.195c-.4-4.571-3.173-6.872-4.58-7.45a.216.216 0 1 1 .162-.4c1.49.612 4.421 3.032 4.844 7.808a.214.214 0 0 1-.194.232h-.019"/>
        <path data-name="패스 15519" d="M17.686 29.073a.214.214 0 0 1-.208-.165 5.4 5.4 0 0 0-5.469-4.1.214.214 0 1 1-.014-.428 5.834 5.834 0 0 1 5.9 4.428.214.214 0 0 1-.208.263"/>
        <path data-name="패스 15520" d="M7.066 38.337a.128.128 0 0 1-.126-.106 7.359 7.359 0 0 0-3.446-5.215.129.129 0 1 1 .115-.23 7.629 7.629 0 0 1 3.584 5.4.128.128 0 0 1-.1.148h-.022"/>
        <path data-name="패스 15521" d="M8.861 38.935a.128.128 0 0 1-.127-.115 9.436 9.436 0 0 0-4.128-6.561.128.128 0 0 1 .135-.218 9.711 9.711 0 0 1 4.248 6.752.128.128 0 0 1-.114.141h-.014"/>
        <path data-name="패스 15522" d="M9.759 37.065a.128.128 0 0 1-.125-.1c-.757-3.376-2.625-4.84-3.506-5.142a.128.128 0 1 1 .083-.243c.929.318 2.892 1.842 3.674 5.329a.128.128 0 0 1-.1.153.136.136 0 0 1-.028 0"/>
        <path data-name="패스 15523" d="M6.019 37.664a.128.128 0 0 1-.021-.255 22.829 22.829 0 0 0 4-1.929.128.128 0 0 1 .127.223 25.2 25.2 0 0 1-4.081 1.96h-.021"/>
        <path data-name="패스 15524" d="M5.271 35.944a.128.128 0 0 1-.055-.244 20.556 20.556 0 0 0 3.765-2.128.128.128 0 0 1 .209.149c-.389.544-3.722 2.142-3.864 2.21a.129.129 0 0 1-.055.012"/>
        <path data-name="패스 15525" d="M4.15 33.924a.128.128 0 0 1-.067-.238 18.062 18.062 0 0 1 3.72-1.813.129.129 0 0 1 .023.256 16.353 16.353 0 0 0-3.61 1.777.126.126 0 0 1-.066.019"/>
        <path data-name="패스 15526" d="M11.255 37.739a.128.128 0 0 1-.122-.167c.443-1.409 1.679-4.422 3.179-5.742a.129.129 0 1 1 .17.193c-1.458 1.283-2.668 4.241-3.1 5.626a.128.128 0 0 1-.122.09"/>
        <path data-name="패스 15527" d="M9.983 33.177a.128.128 0 0 1-.092-.218l2.169-2.244a.128.128 0 0 1 .185.178l-2.169 2.244a.128.128 0 0 1-.092.039"/>
        <path data-name="패스 15528" d="M6.543 30.034a.128.128 0 0 1-.006-.256 5.56 5.56 0 0 0 5.263-5.12.128.128 0 1 1 .255.027 5.813 5.813 0 0 1-5.507 5.35h-.006"/>
        <path data-name="패스 15529" d="M12.153 28.614a.128.128 0 0 1-.122-.168 17.82 17.82 0 0 1 1.6-3.71.128.128 0 1 1 .192.17 16.2 16.2 0 0 0-1.545 3.619.128.128 0 0 1-.122.089"/>
        <path data-name="패스 15530" d="M13.424 29.137a.128.128 0 0 1-.107-.2l2.094-3.216a.128.128 0 1 1 .215.14l-2.094 3.216a.128.128 0 0 1-.108.058"/>
        <path data-name="패스 15531" d="M14.546 29.96a.128.128 0 0 1-.1-.213l2.244-2.543a.128.128 0 1 1 .192.17l-2.244 2.543a.128.128 0 0 1-.1.043"/>
        <path data-name="패스 15532" d="M15.296 31.157a.128.128 0 0 1-.105-.2 6.254 6.254 0 0 1 2.383-2.143.128.128 0 1 1 .081.243 6 6 0 0 0-2.254 2.046.128.128 0 0 1-.105.055"/>
        <path data-name="패스 15533" d="M148.249 3.385c-13.313 5.385-11.668 16.155-12.341 23.634l-.823-.374c-5.759-20.119 6.208-23.41 8.452-24.009a7.192 7.192 0 0 1 4.712.748" transform="translate(-122.111 -2.274)" style="fill:#ff754b"/>
        <path data-name="패스 15534" d="m13.983 25.065-1.187-.54-.027-.095c-2.208-7.712-2.074-13.832.4-18.189A12.788 12.788 0 0 1 21.371.156a7.416 7.416 0 0 1 4.869.767l.4.216-.419.17C14.89 5.892 14.51 14.522 14.201 21.456c-.051 1.162-.1 2.26-.194 3.309zm-.83-.847.457.208c.077-.948.121-1.942.167-2.988.307-6.966.688-15.615 11.841-20.343A6.736 6.736 0 0 0 21.482.57a12.375 12.375 0 0 0-7.945 5.883c-2.4 4.236-2.53 10.213-.384 17.766"/>
        <path data-name="패스 15535" d="M216.1 103.037c-1.556 12.206-12.715 17.1-18.1 18.025l.374.523c14.66 0 17.726-6.956 18.848-14.36a11.983 11.983 0 0 0-1.122-4.188" transform="translate(-181.065 -94.222)" style="fill:#ff754b"/>
        <path data-name="패스 15536" d="M17.314 27.578h-.11l-.636-.891.336-.057c5.534-.948 16.4-5.9 17.924-17.842l.083-.65.317.574a12.135 12.135 0 0 1 1.148 4.277v.048c-.479 3.161-1.413 7.163-4.41 10.078-3.088 3-7.88 4.464-14.65 4.464m0-.587.114.159c14.379-.035 17.407-6.819 18.523-14.155a12.619 12.619 0 0 0-.8-3.428C33.298 21.006 22.932 25.91 17.316 26.991"/>
        <path data-name="패스 15537" d="M15.821 25.718c11.9-6.762 15.429-17.128 15.7-21.466l-1.87-1.5c-7.779 3.052-13.114 16.23-14.809 22.438z"/>
        <path data-name="패스 15538" d="M17.836 29.222a.214.214 0 0 1-.042-.424c.39-.078 3.938-.781 8.238-1.423 5.917-.883 9.259-4.323 10.216-10.517C37.302 10.046 32.405 2.906 25.333.941a13.959 13.959 0 0 0-15.976 7.36c-2.115 4.913-.253 10.038 1.181 12.291a10.2 10.2 0 0 1 1.6 3.983.214.214 0 0 1-.426.043 9.968 9.968 0 0 0-1.539-3.796 15.206 15.206 0 0 1-1.925-4.971 12.805 12.805 0 0 1 .712-7.719 13.6 13.6 0 0 1 6.563-6.568A14.051 14.051 0 0 1 25.444.531a16.105 16.105 0 0 1 8.6 6.14 13.991 13.991 0 0 1 2.629 10.251 13.065 13.065 0 0 1-3.807 7.913 12.39 12.39 0 0 1-6.769 2.961 184.21 184.21 0 0 0-8.217 1.419.215.215 0 0 1-.042 0"/>
    </g>
</svg>
