<svg xmlns="http://www.w3.org/2000/svg" width="49.863" height="43" viewBox="0 0 49.863 43">
    <path data-name="패스 15019" d="M42.486 17.482a2.373 2.373 0 0 1-1.324-.359 1.54 1.54 0 0 1-.659-1.044 1.71 1.71 0 0 1 1.1-2.024 3.422 3.422 0 0 1 .714-2.517 2.537 2.537 0 0 1 1.994-.822 2.3 2.3 0 0 1 1.958.867 2.693 2.693 0 0 1 .364 2.282.484.484 0 0 1-.122.205l-3.226 3.226a.479.479 0 0 1-.246.132 2.917 2.917 0 0 1-.553.054zm1.829-6.172a1.968 1.968 0 0 0-1.549.621 2.818 2.818 0 0 0-.563 2.106.531.531 0 0 1-.357.562 1.124 1.124 0 0 0-.757 1.376.955.955 0 0 0 .409.657 2.021 2.021 0 0 0 1.395.221l3.182-3.182a2.1 2.1 0 0 0-.276-1.731 1.742 1.742 0 0 0-1.484-.63zm-2.7 2.8z"/>
    <path data-name="패스 15020" d="M44.497 19.602a2.327 2.327 0 0 1-.4-.037 1.541 1.541 0 0 1-1.044-.659 2.631 2.631 0 0 1-.307-1.88.479.479 0 0 1 .132-.246l3.222-3.222a.485.485 0 0 1 .206-.122 2.693 2.693 0 0 1 2.282.364 2.3 2.3 0 0 1 .867 1.958 2.536 2.536 0 0 1-.822 1.994 3.422 3.422 0 0 1-2.517.714 1.681 1.681 0 0 1-1.619 1.136zm-1.179-2.426a2.02 2.02 0 0 0 .221 1.395.955.955 0 0 0 .657.409 1.124 1.124 0 0 0 1.376-.758.532.532 0 0 1 .562-.357 2.818 2.818 0 0 0 2.106-.563 1.969 1.969 0 0 0 .621-1.549 1.742 1.742 0 0 0-.63-1.484 2.1 2.1 0 0 0-1.731-.276z"/>
    <path data-name="패스 15021" d="M46.576 13.421a.3.3 0 0 1-.181-.532 2.814 2.814 0 0 0 .766-2.54.3.3 0 0 1 .589-.08 3.385 3.385 0 0 1-.993 3.091.3.3 0 0 1-.181.061z"/>
    <path data-name="패스 15022" d="M46.755 13.812a.3.3 0 0 1-.235-.478 3.386 3.386 0 0 1 3.09-.993.3.3 0 1 1-.08.588 2.814 2.814 0 0 0-2.539.767.3.3 0 0 1-.236.116z"/>
    <path data-name="패스 15023" d="M18.74 9.167a2.794 2.794 0 0 1-1.554-.547.479.479 0 0 1-.166-.225l-1.539-4.294a.483.483 0 0 1-.023-.238 2.694 2.694 0 0 1 1.3-1.908 2.3 2.3 0 0 1 2.141.052 2.536 2.536 0 0 1 1.452 1.595 3.422 3.422 0 0 1-.43 2.58 1.71 1.71 0 0 1 .133 2.3 1.541 1.541 0 0 1-1.041.663 1.757 1.757 0 0 1-.273.022zm-1.172-1a2.02 2.02 0 0 0 1.355.4.954.954 0 0 0 .651-.419 1.124 1.124 0 0 0-.1-1.568.532.532 0 0 1-.083-.661 2.818 2.818 0 0 0 .391-2.145 1.969 1.969 0 0 0-1.135-1.224 1.742 1.742 0 0 0-1.611-.064 2.1 2.1 0 0 0-.989 1.447z"/>
    <path data-name="패스 15024" d="M15.779 10.166a1.841 1.841 0 0 1-1.813-1.926 3.422 3.422 0 0 1-1.971-1.72 2.536 2.536 0 0 1 .109-2.154l.269.127-.269-.127a2.3 2.3 0 0 1 1.621-1.4 2.693 2.693 0 0 1 2.219.646.483.483 0 0 1 .134.2l1.539 4.295a.48.48 0 0 1 .014.279 2.63 2.63 0 0 1-1.08 1.569 1.509 1.509 0 0 1-.772.211zm-1.616-6.65a1.573 1.573 0 0 0-.318.032 1.742 1.742 0 0 0-1.2 1.072 1.969 1.969 0 0 0-.1 1.666 2.818 2.818 0 0 0 1.662 1.409.531.531 0 0 1 .356.563 1.124 1.124 0 0 0 .921 1.272.955.955 0 0 0 .769-.089 2.02 2.02 0 0 0 .8-1.167l-1.518-4.236a2.21 2.21 0 0 0-1.372-.522z"/>
    <path data-name="패스 15025" d="M15.833 3.515a.3.3 0 0 1-.264-.162 3.385 3.385 0 0 1 .422-3.218.3.3 0 0 1 .5.324 2.814 2.814 0 0 0-.391 2.624.3.3 0 0 1-.264.433z"/>
    <path data-name="패스 15026" d="M15.506 3.793a.3.3 0 0 1-.29-.234 2.776 2.776 0 0 0-1.969-1.778.3.3 0 0 1 .179-.566 3.385 3.385 0 0 1 2.37 2.218.3.3 0 0 1-.291.36z"/>
    <path data-name="패스 15027" d="M30.264 27.283h-.012a.3.3 0 0 1-.285-.308c.123-3.145-.264-6.683-1.1-6.916-1.557-.432-9.609-.427-15.116.01a49.15 49.15 0 0 1-7.481.1c-2.359-.194-3.582-.649-3.741-1.388a.528.528 0 0 1 .114-.451c.222-.28.886-.688 4.075-1 2.4-.238 4.958-.3 5.685-.311.483 0 11.784-.088 14.252 1.215a.3.3 0 1 1-.277.525c-1.734-.915-9.3-1.187-13.967-1.146-.734.013-3.326.075-5.728.318-2.969.3-3.481.667-3.565.76.114.305 1.008.711 3.2.892a48.535 48.535 0 0 0 7.385-.1c5.667-.45 13.686-.445 15.322.01 1.723.479 1.582 6.341 1.537 7.511a.3.3 0 0 1-.298.279z"/>
    <path data-name="패스 15028" d="M28.526 27.132h-.016a.3.3 0 0 1-.28-.313c.006-.118.01-.249.01-.39a11.985 11.985 0 0 0-.1-1.488.3.3 0 1 1 .589-.075 12.573 12.573 0 0 1 .1 1.563c0 .152 0 .294-.011.422a.3.3 0 0 1-.292.281zm-.493-3.821a.3.3 0 0 1-.272-.178 2.221 2.221 0 0 0-1.237-1.121.3.3 0 0 1 .234-.546 2.793 2.793 0 0 1 1.547 1.43.3.3 0 0 1-.272.416zm-23.127-.753a5.011 5.011 0 0 1-1.521-.223.3.3 0 1 1 .18-.566 4.7 4.7 0 0 0 1.8.177.3.3 0 0 1 .047.592 6.243 6.243 0 0 1-.506.021zm2.417-.16a.3.3 0 0 1-.018-.593c.556-.034 1.208-.071 1.939-.11a.3.3 0 1 1 .031.593 254.7 254.7 0 0 0-1.934.11zm3.873-.207a.3.3 0 0 1-.014-.594l1.937-.09a.3.3 0 0 1 .027.593l-1.936.09zm3.872-.175a.3.3 0 0 1-.012-.594l1.937-.081a.3.3 0 1 1 .024.593l-1.936.081zm3.873-.159a.3.3 0 0 1-.011-.594l1.938-.075a.3.3 0 0 1 .023.593l-1.937.075zm3.875-.147a.3.3 0 0 1-.011-.594l1.556-.056c.118-.006.256-.008.4 0a.3.3 0 0 1-.015.594h-.357l-1.561.056zm-20.957-.383a.3.3 0 0 1-.219-.1 3.86 3.86 0 0 1-.959-1.842.3.3 0 1 1 .584-.11 3.3 3.3 0 0 0 .813 1.551.3.3 0 0 1-.218.5z"/>
    <path data-name="패스 15029" d="M5.83 40.569h-.5a.3.3 0 0 1 .005-.594h.005c.554.009 1.211 0 1.92-.024a.3.3 0 0 1 .022.594 50.96 50.96 0 0 1-1.452.024zm3.371-.132a.3.3 0 0 1-.02-.593l.651-.047a81.33 81.33 0 0 1 1.283-.088.3.3 0 0 1 .036.593c-.421.025-.849.055-1.273.087l-.656.048zm-5.8-.013a.291.291 0 0 1-.048 0c-.792-.128-.984-.307-1.062-.448a.3.3 0 0 1 .5-.319 1.935 1.935 0 0 0 .657.18.3.3 0 0 1-.047.59zm-.591-.74zm10.253.526a.3.3 0 0 1-.01-.594 88.667 88.667 0 0 1 1.942-.047.3.3 0 0 1 .008.594c-.674.009-1.3.024-1.929.047zm5.808-.049h-1.932a.3.3 0 0 1 0-.594h1.934a.3.3 0 0 1 0 .594zm1.936-.008a.3.3 0 0 1 0-.594 35.62 35.62 0 0 0 1.918-.077.3.3 0 1 1 .041.592c-.577.04-1.215.066-1.95.078zm3.857-.3a.3.3 0 0 1-.049-.59 3.672 3.672 0 0 0 1.643-.663.3.3 0 1 1 .361.471 4.254 4.254 0 0 1-1.906.778.3.3 0 0 1-.047.008zm2.832-2.3a.3.3 0 0 1-.286-.378 3.6 3.6 0 0 0 .035-1.765.3.3 0 0 1 .577-.141 4.194 4.194 0 0 1-.041 2.068.3.3 0 0 1-.283.219z"/>
    <path data-name="패스 15030" d="M17.951 42.999c-.927 0-1.8-.006-2.558-.014-5.7-.062-12.073-.336-12.871-.685a4.126 4.126 0 0 1-1.934-3.04c-1.156-7.169-.3-17.9-.01-21.017a.6.6 0 0 1 .1-.289c.715-1.059 3.115-1.638 5-1.937a47.235 47.235 0 0 1 12.172-.118c3.415.4 8.088 1.354 10.954 3.588a.3.3 0 0 1-.365.469c-4.833-3.766-16.27-4.366-22.668-3.352-2.466.391-4.143 1-4.6 1.682v.012c-.288 3.1-1.14 13.767.005 20.868a3.61 3.61 0 0 0 1.585 2.59c.551.241 5.877.561 12.64.635 8.067.088 12.123-.234 12.565-.593 1.233-1 2.094-4.113 2-7.238a.3.3 0 0 1 .288-.305h.009a.3.3 0 0 1 .3.288c.084 2.869-.651 6.441-2.221 7.717-.265.215-1.022.482-4.556.635-1.864.08-3.963.104-5.835.104z"/>
    <path data-name="패스 15031" d="M25.651 35.673a24.559 24.559 0 0 1-3.442-.261.679.679 0 0 1-.567-.52c-.138-.617-1.278-6.066.988-7.493a.643.643 0 0 1 .326-.1c2.737-.073 7.117-.335 7.963-.758a.3.3 0 1 1 .266.531c-1.236.618-7.5.8-8.213.821a.056.056 0 0 0-.025.006c-1.358.855-1.328 4.156-.724 6.861a.084.084 0 0 0 .071.061c6.131.87 8.769-.662 9.362-1.7a19.117 19.117 0 0 0 .161-6.254c-.244-1.281-1.132-1.563-1.426-1.521a.3.3 0 1 1-.084-.588c.523-.075 1.774.325 2.093 2a19.579 19.579 0 0 1-.171 6.521.613.613 0 0 1-.057.138c-.651 1.147-2.721 2.256-6.521 2.256z"/>
    <g data-name="그룹 28172" transform="translate(23.676 29.195)">
        <circle data-name="타원 150" cx="2.023" cy="2.023" r="2.023" transform="translate(.255 .255)" style="fill:#ff754b"/>
        <path data-name="패스 15032" d="M281.8 349.347a2.278 2.278 0 1 1 2.278-2.278 2.28 2.28 0 0 1-2.278 2.278zm0-4.047a1.769 1.769 0 1 0 1.769 1.769 1.771 1.771 0 0 0-1.769-1.769z" transform="translate(-279.518 -344.791)" style="fill:#040000"/>
    </g>
    <path data-name="패스 15033" d="M25.816 34.611c-.175 0-.354 0-.534-.014a.3.3 0 1 1 .03-.593c.169.008.339.013.5.013a8.8 8.8 0 0 0 1.362-.1.3.3 0 1 1 .092.587 9.409 9.409 0 0 1-1.454.109zm-2.432-.287a.3.3 0 0 1-.071-.009l-.089-.023a.671.671 0 0 1-.493-.587c-.047-.5-.083-.97-.106-1.4a.3.3 0 1 1 .593-.032c.023.425.059.889.1 1.379a.076.076 0 0 0 .052.069l.081.021a.3.3 0 0 1-.071.585zm5.692-.376a.3.3 0 0 1-.129-.565l.127-.063a.3.3 0 0 1 .272.528l-.142.071a.3.3 0 0 1-.129.029zm-6.17-3.3h-.018a.3.3 0 0 1-.279-.314c.069-1.182.311-1.771.74-1.8a.693.693 0 0 1 .086 0H23.645a.3.3 0 1 1-.006.594h-.2a2.853 2.853 0 0 0-.238 1.238.3.3 0 0 1-.296.283zm2.676-1.555a.3.3 0 0 1-.015-.593 33.374 33.374 0 0 0 1.913-.155.3.3 0 1 1 .065.59c-.646.072-1.3.125-1.948.158zm3.847-.428a.3.3 0 0 1-.051-.59 18.914 18.914 0 0 0 1.86-.408.3.3 0 1 1 .165.57 19.526 19.526 0 0 1-1.923.422.3.3 0 0 1-.052.007z"/>
</svg>
