<svg xmlns="http://www.w3.org/2000/svg" width="180.992" height="143.299" viewBox="0 0 180.992 143.299">
    <path data-name="패스 14985" d="M42.166 134.094h-10.79a.994.994 0 1 1 0-1.987h10.79a4.69 4.69 0 0 0 4.684-4.684v-56.51a4.69 4.69 0 0 0-4.684-4.684H6.672a4.69 4.69 0 0 0-4.685 4.684v33.932a.994.994 0 1 1-1.987 0V70.913a6.679 6.679 0 0 1 6.672-6.672h35.494a6.679 6.679 0 0 1 6.672 6.672v56.51a6.679 6.679 0 0 1-6.672 6.671z"/>
    <path data-name="패스 14986" d="M12.922 87.811a.994.994 0 0 1-.994-.994V73.188a.994.994 0 1 1 1.987 0v13.629a.994.994 0 0 1-.993.994z"/>
    <path data-name="패스 14987" d="M12.922 94.342a.994.994 0 0 1-.994-.994v-1.987a.994.994 0 1 1 1.987 0v1.987a.994.994 0 0 1-.993.994z"/>
    <g data-name="그룹 28168">
        <path data-name="사각형 11521" transform="translate(33.647 66.09)" style="fill:#ff754b" d="M0 0h7.95v66.159H0z"/>
        <path data-name="패스 14988" d="M125.67 295.4h-9.654v-67.867h9.654zm-7.95-1.7h6.247v-64.464h-6.247z" transform="translate(-83.221 -162.295)" style="fill:#040000"/>
    </g>
    <circle data-name="타원 147" cx="8.234" cy="8.234" r="8.234" transform="translate(3.266 113.793)"/>
    <path data-name="패스 14989" d="M11.5 139.223a8.588 8.588 0 0 1-8.521-8.636 8.731 8.731 0 0 1 .46-2.807.71.71 0 1 1 1.344.456 7.307 7.307 0 0 0-.385 2.351 7.1 7.1 0 1 0 14.2 0 7.31 7.31 0 0 0-.385-2.351.71.71 0 1 1 1.344-.456 8.726 8.726 0 0 1 .46 2.807 8.588 8.588 0 0 1-8.517 8.636z"/>
    <path data-name="패스 14990" d="M175.597 93.348a1.1 1.1 0 0 1-.774-.369 3.135 3.135 0 0 1-.631-1 9.719 9.719 0 0 1 0-6.626 3.15 3.15 0 0 1 .631-1 1 1 0 0 1 1.548 0 3.155 3.155 0 0 1 .632 1 9.718 9.718 0 0 1 0 6.626 3.142 3.142 0 0 1-.633 1 1.1 1.1 0 0 1-.773.369zm0-7.655a4.005 4.005 0 0 0-.1.211 8.344 8.344 0 0 0 0 5.517c.034.08.068.15.1.211.031-.061.064-.131.1-.212a8.344 8.344 0 0 0 0-5.517 5.574 5.574 0 0 0-.1-.21z"/>
    <path data-name="패스 14991" d="M63.778 61.276c-2.936 0-7.939-1.209-8.984-5.966-.623-2.841-.491-4.458.419-5.088a1.581 1.581 0 0 1 1.8.081 1.662 1.662 0 0 1 .741 1.135c.164.923-.3 2.093-1.411 3.578a.713.713 0 0 1-.126.13c.984 4.016 5.672 4.833 8.037 4.7a.71.71 0 0 1 .08 1.417c-.178.008-.362.013-.556.013zm-7.765-9.877c-.051.067-.273.446-.141 1.765a2.427 2.427 0 0 0 .481-1.477.253.253 0 0 0-.115-.192.578.578 0 0 0-.224-.096z"/>
    <path data-name="패스 14992" d="M52.252 59.834a4.753 4.753 0 0 1-2.981-1.027 4.445 4.445 0 0 1-1.735-3.365c0-1.731 1.19-4.594 2.545-4.594a1.147 1.147 0 0 1 1.081.868 4.772 4.772 0 0 1 .208 1.6c0 2.081.807 2.909 1.5 2.986a.71.71 0 1 1-.157 1.411c-1.274-.141-2.761-1.378-2.761-4.4a5.684 5.684 0 0 0-.043-.761 5.73 5.73 0 0 0-.951 2.891 3 3 0 0 0 1.195 2.251 3.5 3.5 0 0 0 3.042.608.71.71 0 0 1 .329 1.381 5.485 5.485 0 0 1-1.272.151z"/>
    <path data-name="패스 14993" d="M61.516 64.463a9.482 9.482 0 0 1-6.03-2.339c-1.854-1.609-4.024-4.744-3.831-10.54a4.278 4.278 0 0 1 1.968-3.612 4.527 4.527 0 0 1 4.3-.129l.04.02a4.1 4.1 0 0 1 2.023 3.528 7.406 7.406 0 0 1-2.662 6.048.71.71 0 1 1-.825-1.155 5.969 5.969 0 0 0 2.07-4.81 2.757 2.757 0 0 0-1.271-2.357 3.107 3.107 0 0 0-2.93.066 2.85 2.85 0 0 0-1.29 2.449c-.175 5.237 1.722 8.013 3.343 9.42a7.613 7.613 0 0 0 5.9 1.926.71.71 0 1 1 .247 1.4 6.081 6.081 0 0 1-1.052.085z"/>
    <path data-name="패스 14994" d="M172.474 103.855c-2.275 0-4.414-1.565-6.023-4.408a23.94 23.94 0 0 1 0-21.282c1.609-2.843 3.748-4.408 6.023-4.408s4.415 1.565 6.024 4.408a23.942 23.942 0 0 1 0 21.282c-1.609 2.843-3.748 4.408-6.024 4.408zm0-28.679c-1.742 0-3.442 1.31-4.788 3.688a22.541 22.541 0 0 0 0 19.884c1.346 2.378 3.046 3.687 4.788 3.687s3.442-1.309 4.788-3.687a22.543 22.543 0 0 0 0-19.884c-1.345-2.378-3.046-3.687-4.788-3.687z"/>
    <path data-name="패스 14995" d="M170.485 95.052a1.1 1.1 0 0 1-.774-.369 3.149 3.149 0 0 1-.631-1 9.718 9.718 0 0 1 0-6.626 3.154 3.154 0 0 1 .632-1 1 1 0 0 1 1.547 0 3.146 3.146 0 0 1 .632 1 9.719 9.719 0 0 1 0 6.626 3.134 3.134 0 0 1-.633 1 1.1 1.1 0 0 1-.773.369zm0-7.655a3.339 3.339 0 0 0-.1.211 8.344 8.344 0 0 0 0 5.517c.034.08.068.15.1.211.031-.061.065-.131.1-.212a8.343 8.343 0 0 0 0-5.517 5.574 5.574 0 0 0-.1-.21z"/>
    <path data-name="패스 14996" d="M155.578 101.725a.709.709 0 0 1-.633-.389c-4.162-8.207-2.111-17.726-.446-21.612a.71.71 0 1 1 1.3.559c-1.575 3.676-3.518 12.672.407 20.411a.711.711 0 0 1-.633 1.031z"/>
    <path data-name="패스 14997" d="M171.621 75.176h-.039l-13.2-.71a.71.71 0 0 1 .076-1.417l13.2.71a.71.71 0 0 1-.037 1.418z"/>
    <path data-name="패스 14998" d="M156.995 106.694a.71.71 0 0 1-.171-1.4 45.733 45.733 0 0 1 6.987-.3 20.084 20.084 0 0 0 9.446-2.605.71.71 0 1 1 .7 1.235 21.543 21.543 0 0 1-10.146 2.79 47.518 47.518 0 0 0-6.643.263.724.724 0 0 1-.173.017z"/>
    <path data-name="패스 14999" d="M148.764 123.589a.71.71 0 0 1-.358-1.323c7.941-4.632 13.6-12.976 15.482-16.741a.71.71 0 0 1 1.27.635c-1.948 3.9-7.806 12.532-16.036 17.332a.708.708 0 0 1-.358.097z"/>
    <path data-name="패스 15000" d="M142.807 141.992a36.46 36.46 0 0 1-9.447-1.541.71.71 0 0 1 .423-1.355c4.244 1.323 11.537 2.451 14.234.139 2.728-2.338 3.469-12.239 3.3-18.324a.71.71 0 0 1 1.419-.039c.018.646.387 15.855-3.8 19.441-1.471 1.263-3.757 1.679-6.129 1.679z"/>
    <path data-name="패스 15001" d="M124.712 143.303a56.428 56.428 0 0 1-8.531-.688c-.893-.048-2.192-1.014-3.02-3.616-1.008-3.168-1.842-14.176-1.877-14.644a.71.71 0 1 1 1.416-.106c.34 4.532 1.1 12.085 1.814 14.319.667 2.095 1.548 2.607 1.747 2.629l.107.01c3.186.531 10.307 1.217 14.451.018 3.533-1.023 4.261-11.158 3.89-17.306a.71.71 0 0 1 1.417-.085c.042.7.96 17.055-4.912 18.755a24.6 24.6 0 0 1-6.502.714z"/>
    <path data-name="패스 15002" d="M137.01 128.252a7.641 7.641 0 0 1-1.443-.133.71.71 0 1 1 .268-1.394c2.8.538 5.846-1.05 7.025-1.757a.71.71 0 1 1 .73 1.217 13.76 13.76 0 0 1-6.58 2.067z"/>
    <path data-name="패스 15003" d="M106.387 131.776c-5.038 0-11.868-.477-15.894-2.743a.71.71 0 0 1 .7-1.237c6.189 3.482 19.785 2.454 21.314 2.325a.71.71 0 0 1 .119 1.415 78.96 78.96 0 0 1-6.239.24z"/>
    <path data-name="패스 15004" d="M92.006 139.086c-1.763 0-3.421-.28-4.224-1.082a.71.71 0 0 1 1-1c1.048 1.048 5.891.746 8.218-.03 1.092-.364 2.224-3.455 2.647-6.111a.71.71 0 0 1 1.4.223c-.1.652-1.086 6.4-3.6 7.235a19.7 19.7 0 0 1-5.441.765z"/>
    <path data-name="패스 15005" d="M81.878 140.497c-3.823 0-8.006-.813-11.1-3.6-4.487-4.038-2.447-19.285-2.358-19.932a.71.71 0 1 1 1.406.194c-.836 6.07-1.018 16.056 1.9 18.684 3.906 3.516 9.874 3.544 14.193 2.948 2.213-.305 3.881-7.048 4.215-13.39a.7.7 0 0 1 .746-.671.709.709 0 0 1 .671.746c-.076 1.441-.873 14.091-5.439 14.721a31.183 31.183 0 0 1-4.234.3z"/>
    <path data-name="패스 15006" d="M68.691 121.317a.709.709 0 0 1-.545-.255c-7.368-8.812-18.206-32.06-6.486-56.978 6.9-14.669 19.808-21.226 29.422-24.143a.71.71 0 1 1 .412 1.358c-9.339 2.833-21.873 9.191-28.55 23.389-11.414 24.27-.876 46.892 6.291 55.464a.71.71 0 0 1-.544 1.165z"/>
    <path data-name="패스 15007" d="M117.246 38.832a.792.792 0 0 1-.085-.005 56.878 56.878 0 0 0-8.247-.325.71.71 0 0 1-.042-1.419 58.32 58.32 0 0 1 8.458.334.71.71 0 0 1-.083 1.415z"/>
    <path data-name="패스 15008" d="M163.955 74.467a.71.71 0 0 1-.662-.454c-8.724-22.575-28.766-32.21-39.232-34.344a.71.71 0 1 1 .283-1.391c10.749 2.192 31.327 12.076 40.273 35.223a.71.71 0 0 1-.662.966z"/>
    <circle data-name="타원 148" cx="4.259" cy="4.259" r="4.259" transform="translate(139.25 62.115)"/>
    <ellipse data-name="타원 149" cx="3.549" cy="3.691" rx="3.549" ry="3.691" transform="translate(153.164 57.287)"/>
    <path data-name="패스 15009" d="M143.372 46.214a.71.71 0 0 1-.654-.985c.75-1.782 1.674-4.958 1.378-6.438a.71.71 0 1 1 1.392-.278c.378 1.888-.667 5.381-1.462 7.267a.71.71 0 0 1-.654.434z"/>
    <path data-name="패스 15010" d="M138.256 43.336a.71.71 0 0 1-.59-1.1c.891-1.336 3-4.374 4.586-6.3.96-1.165 1.8-1.644 2.571-1.462a1.5 1.5 0 0 1 1.082 1.186.71.71 0 1 1-1.383.319.427.427 0 0 0-.044-.116c-.1.026-.468.171-1.13.975-1.554 1.886-3.623 4.874-4.5 6.189a.709.709 0 0 1-.592.309z"/>
    <path data-name="패스 15011" d="M145.781 50.189a.711.711 0 0 1-.682-.906c2.075-7.231 2.8-15.259.426-16.179-2.833-1.1-8.569 5.013-11.519 9.122a.71.71 0 1 1-1.153-.828c.847-1.179 8.407-11.469 13.185-9.618 4.865 1.883.895 16.261.426 17.894a.711.711 0 0 1-.683.515z"/>
    <path data-name="패스 15012" d="M115.966 62.54a.71.71 0 0 1-.707-.658c-.059-.8-1.4-19.772 2.41-24.894a2.585 2.585 0 0 1 2.333-1.129c4.654.321 11.573 12.719 12.347 14.131a.71.71 0 1 1-1.245.682c-3.571-6.52-8.565-13.215-11.2-13.4a1.179 1.179 0 0 0-1.1.56c-2.593 3.491-2.7 16.232-2.133 23.944a.71.71 0 0 1-.656.759z"/>
    <path data-name="패스 15013" d="M120.653 57.998a.71.71 0 0 1-.673-.483c-.169-.5-4.09-12.307.247-15.56a1.927 1.927 0 0 1 1.717-.211c1.431.439 3.69 2.414 6.329 9.329a.71.71 0 1 1-1.326.506c-2.733-7.162-4.838-8.3-5.419-8.477a.584.584 0 0 0-.468 0c-2.578 1.934-1.208 9.589.266 13.957a.71.71 0 0 1-.673.937z"/>
    <g data-name="그룹 28169">
        <path data-name="패스 15014" d="M370.9 13.016c-7.623 6.269-11.876 19.364-13.07 25.289 0-16.163 2.742-23.33 4.634-25.582a.683.683 0 0 0-.182-1.079 129.57 129.57 0 0 0-14.2-3.321.551.551 0 0 1-.426-.719 25.127 25.127 0 0 1 3.583-6.636.556.556 0 0 1 .775-.1c4.074 3 13.693 8.408 18.8 11.177a.588.588 0 0 1 .086.971z" transform="translate(-249.074 .1)" style="fill:#ff754b"/>
        <path data-name="패스 15015" d="m356.512 36.318-1.686-.168c0-18.236 3.441-24.346 4.7-25.968A134.492 134.492 0 0 0 345.774 7a1.411 1.411 0 0 1-.959-.675 1.4 1.4 0 0 1-.116-1.155 25.93 25.93 0 0 1 3.714-6.879 1.4 1.4 0 0 1 1.956-.268c3.713 2.733 12.4 7.695 18.7 11.114a1.423 1.423 0 0 1 .738 1.117 1.45 1.45 0 0 1-.524 1.26c-7.369 6.068-11.577 18.878-12.771 24.804zM346.429 5.394a124.865 124.865 0 0 1 13.988 3.293 1.385 1.385 0 0 1 .874.962 1.646 1.646 0 0 1-.327 1.467c-.639.761-3.482 4.853-4.245 18.067 2.147-6.341 5.855-14.174 11.2-18.734-2.433-1.325-13.5-7.4-18.323-10.883a24.612 24.612 0 0 0-3.167 5.828zm21.778 4.806z" transform="translate(-246.926 2.256)" style="fill:#040000"/>
    </g>
    <path data-name="패스 15016" d="M90.202 47.934a2.154 2.154 0 0 1-1.8-3.316l.209-.321a2.05 2.05 0 0 1 .813-.728 18.916 18.916 0 0 1 2.2-.894.71.71 0 0 1 .458 1.344 17.521 17.521 0 0 0-2.037.825.637.637 0 0 0-.247.227l-.209.321a.714.714 0 0 0 0 .778.724.724 0 0 0 .714.341 172.748 172.748 0 0 1 18.015-1.515h.191a.686.686 0 0 0 .57-.278 9.326 9.326 0 0 0 1.6-3.234.082.082 0 0 0-.019-.083.471.471 0 0 0-.36-.118c-.385.016-.794.035-1.223.058a.71.71 0 0 1-.077-1.417c.436-.024.852-.043 1.243-.059a1.866 1.866 0 0 1 1.488.6 1.49 1.49 0 0 1 .345 1.268 10.889 10.889 0 0 1-1.827 3.792 2.1 2.1 0 0 1-1.736.887h-.187a174.632 174.632 0 0 0-17.84 1.5 2.225 2.225 0 0 1-.284.022z"/>
    <path data-name="패스 15017" d="M88.991 45.501c3.862-2.044 17.652-2.887 21.438-2.982a5.016 5.016 0 0 1-1.42 2.7c-4.259-.142-16.895 1.7-19.734 1.7z"/>
    <path data-name="패스 15018" d="M92.28 45.22a.71.71 0 0 1-.686-.53c-3.533-13.468-1.727-29.133-.1-36.265a1.257 1.257 0 0 1 1.211-.979c6.389-.1 15.194 1.951 20.788 3.734a1.28 1.28 0 0 1 .839.863 1.334 1.334 0 0 1-.252 1.227c-5.2 6.286-5.017 21.925-4.2 29.317a.71.71 0 1 1-1.411.157c-.9-8.113-.975-23.562 4.421-30.264-5.374-1.7-13.625-3.617-19.745-3.617h-.3c-1.588 7.063-3.323 22.341.12 35.467a.711.711 0 0 1-.687.89z"/>
</svg>
