<svg xmlns="http://www.w3.org/2000/svg" width="239.658" height="145.823" viewBox="0 0 239.658 145.823">
    <defs>
        <clipPath id="lnyhqlbq4a">
            <path data-name="사각형 11769" style="fill:none" d="M0 0h239.659v145.823H0z"/>
        </clipPath>
    </defs>
    <g data-name="그룹 29813">
        <g data-name="그룹 29812" style="clip-path:url(#lnyhqlbq4a)">
            <path data-name="패스 15544" d="M179.792 370.2a18.28 18.28 0 1 1-18.281-18.281 18.281 18.281 0 0 1 18.281 18.281" transform="translate(-101.458 -249.285)" style="fill:#ff754b"/>
        </g>
    </g>
    <g data-name="그룹 29815">
        <g data-name="그룹 29814" style="clip-path:url(#lnyhqlbq4a)">
            <path data-name="패스 15545" d="M60.002 139.529a18.361 18.361 0 1 1 18.621-18.359 18.513 18.513 0 0 1-18.621 18.359m0-35.26a16.9 16.9 0 1 0 17.163 16.9 17.053 17.053 0 0 0-17.163-16.9"/>
            <path data-name="패스 15546" d="M55.527 131.29a.73.73 0 0 1-.655-1.049l.92-1.885a.729.729 0 1 1 1.31.64l-.92 1.885a.73.73 0 0 1-.656.409"/>
            <path data-name="패스 15547" d="M63.809 114.32a.729.729 0 0 1-.655-1.049l1.15-2.357a.73.73 0 0 1 1.311.639l-1.15 2.357a.729.729 0 0 1-.656.409"/>
            <path data-name="패스 15548" d="M58.12 129.562a6.536 6.536 0 0 1-2-.319 7.78 7.78 0 0 1-3.667-2.574.73.73 0 0 1 1.15-.9 6.285 6.285 0 0 0 2.962 2.082 4.951 4.951 0 0 0 2.642.127 2.718 2.718 0 0 0 1.951-1.683 3.632 3.632 0 0 0-.691-3.42c-.218-.3-.47-.625-.736-.965-1.551-1.981-3.674-4.7-1.736-7.517a4.368 4.368 0 0 1 6-1.528 10.546 10.546 0 0 1 3.682 3.162.729.729 0 1 1-1.183.852 9 9 0 0 0-3.132-2.7 2.939 2.939 0 0 0-4.159 1.041c-1.237 1.8-.083 3.537 1.682 5.792.276.352.536.685.771 1.012a5.1 5.1 0 0 1 .871 4.787 4.172 4.172 0 0 1-2.991 2.59 6.334 6.334 0 0 1-1.41.16"/>
            <path data-name="패스 15549" d="M136.585 145.823a18.361 18.361 0 1 1 18.621-18.359 18.512 18.512 0 0 1-18.621 18.359m0-35.26a16.9 16.9 0 1 0 17.163 16.9 17.053 17.053 0 0 0-17.163-16.9"/>
            <path data-name="패스 15550" d="M176.976 145.823a18.361 18.361 0 1 1 18.621-18.359 18.513 18.513 0 0 1-18.621 18.359m0-35.26a16.9 16.9 0 1 0 17.163 16.9 17.053 17.053 0 0 0-17.163-16.9"/>
            <path data-name="패스 15551" d="M217.365 145.823a18.361 18.361 0 1 1 18.622-18.359 18.512 18.512 0 0 1-18.622 18.359m0-35.26a16.9 16.9 0 1 0 17.163 16.9 17.053 17.053 0 0 0-17.163-16.9"/>
            <path data-name="패스 15552" d="M38.497 100.392a.709.709 0 0 1-.121-.01c-1.262-.21-5.035-2.373-11.174-9.147a.73.73 0 1 1 1.081-.979c6.1 6.731 9.527 8.553 10.332 8.688a.729.729 0 0 1-.119 1.448"/>
            <path data-name="패스 15553" d="M32.2 113.244a.728.728 0 0 1-.294-.062C24.02 109.696 7.215 99.107.07 83.976a.73.73 0 1 1 1.319-.623c6.962 14.743 23.393 25.085 31.108 28.494a.729.729 0 0 1-.3 1.4"/>
            <path data-name="패스 15554" d="M34.563 134.225a.724.724 0 0 1-.191-.026c-5.432-1.473-18.039-7.2-26.87-18.348a.73.73 0 1 1 1.143-.906c8.6 10.846 20.837 16.416 26.109 17.846a.729.729 0 0 1-.19 1.433"/>
            <path data-name="패스 15555" d="M65.772 104.327a.73.73 0 0 1-.686-.976l31.473-87.6a.729.729 0 0 1 1.372.493l-31.473 87.6a.73.73 0 0 1-.686.483"/>
            <path data-name="패스 15556" d="M136.586 109.834a.729.729 0 0 1-.729-.729V15.998a.729.729 0 1 1 1.458 0v93.106a.729.729 0 0 1-.729.729"/>
            <path data-name="패스 15557" d="M176.189 109.834a.729.729 0 0 1-.729-.729V15.998a.729.729 0 0 1 1.458 0v93.106a.729.729 0 0 1-.729.729"/>
            <path data-name="패스 15558" d="M217.103 109.834a.729.729 0 0 1-.729-.729V15.998a.729.729 0 0 1 1.458 0v93.106a.729.729 0 0 1-.729.729"/>
            <path data-name="패스 15559" d="M62.888 0H230.91a8.749 8.749 0 0 1 8.748 8.749v7.511H71.637a8.749 8.749 0 0 1-8.749-8.749z"/>
        </g>
    </g>
</svg>
