<svg xmlns="http://www.w3.org/2000/svg" width="217.27" height="137.756" viewBox="0 0 217.27 137.756">
    <defs>
        <clipPath id="c5m8x3a2ja">
            <path data-name="사각형 11778" style="fill:none" d="M0 0h217.27v137.756H0z"/>
        </clipPath>
    </defs>
    <g data-name="그룹 29835" style="clip-path:url(#c5m8x3a2ja)">
        <path data-name="패스 15661" d="M210.56 137.756H6.711A6.719 6.719 0 0 1 0 131.045V6.711A6.719 6.719 0 0 1 6.711 0H210.56a6.719 6.719 0 0 1 6.711 6.711v124.334a6.719 6.719 0 0 1-6.711 6.711M6.711 1.678a5.039 5.039 0 0 0-5.033 5.033v124.334a5.039 5.039 0 0 0 5.033 5.033H210.56a5.039 5.039 0 0 0 5.033-5.033V6.711a5.039 5.039 0 0 0-5.033-5.033z"/>
        <path data-name="패스 15662" d="M22.67 17.437a5.231 5.231 0 1 1-5.233 5.233 5.232 5.232 0 0 1 5.233-5.233"/>
        <path data-name="패스 15663" d="M199.833 121.153h-22.035a.839.839 0 1 1 0-1.678h22.035a.839.839 0 1 1 0 1.678m0-9.416h-33.828a.839.839 0 0 1 0-1.678h33.829a.839.839 0 0 1 0 1.678"/>
        <path data-name="패스 15664" d="M115.3 160.6h-.011a2.015 2.015 0 0 1-1.8-1.125c-11.231-22.606-28.214-27.3-35.62-26.627l-.3-3.342c7.934-.719 25.679 3.923 37.728 26.159 7.23-13.964 15.139-26.46 28.969-30.262 11.8-3.242 26.3.376 44.249 11.061-3.068-7.48-7.133-21.744-1.746-36.4 4.022-10.964 12.499-19.548 25.215-25.564l-9.071-2.651a2 2 0 0 1 .312-3.909c2.022-.245 19.837-2.242 22.72 3.018.55 1 .842 2.643-.895 4.752-5.082 6.173-6.2 9.762-5.006 16l-3.3.634c-1.4-7.26-.008-11.819 5.71-18.766.495-.6.559-.937.549-.994-.08-.266-1.431-1.341-6.577-1.718a58.134 58.134 0 0 0-5.321-.117l5.327 1.557a2.007 2.007 0 0 1 1.437 1.818 2.036 2.036 0 0 1-1.25 1.989c-13.688 5.679-22.676 14.128-26.713 25.114-4.9 13.329-1.443 28.235 3.424 37.741a1.981 1.981 0 0 1-.437 2.39 2.056 2.056 0 0 1-2.479.225c-18.827-11.9-33.636-16.135-45.271-12.936-13.27 3.648-20.843 16.681-28.055 30.864a2 2 0 0 1-1.791 1.1" transform="translate(-51.536 -44.761)" style="fill:#ff754b"/>
    </g>
</svg>
