<svg xmlns="http://www.w3.org/2000/svg" width="396.092" height="135.567" viewBox="0 0 396.092 135.567">
    <g data-name="그룹 28019">
        <g data-name="그룹 28012">
            <g data-name="그룹 28010">
                <path data-name="패스 14829" d="m684.016 977.124.007 8.324c0 2.522-2.914 5.051-8.774 7.008-11.721 3.912-30.85 4.077-43.1.419q-.3-.09-.6-.183c-6.208-1.954-9.327-4.552-9.33-7.157l-.007-8.324c0 2.6 3.122 5.2 9.33 7.157q.3.093.6.183c12.253 3.659 31.382 3.493 43.1-.419 5.858-1.957 8.778-4.485 8.774-7.008z" transform="translate(-615.103 -863.131)" style="fill:#fff"/>
                <path data-name="패스 14830" d="M37.898 132.86a76.167 76.167 0 0 1-20.989-2.673c-.2-.061-.4-.122-.6-.185-6.222-1.958-9.65-4.657-9.655-7.6l-.007-8.323a.476.476 0 0 1 .463-.464.463.463 0 0 1 .463.462c0 2.468 3.286 4.916 9.006 6.716.2.062.392.122.591.181 12.1 3.613 31.313 3.428 42.824-.415 5.378-1.8 8.461-4.189 8.458-6.568a.464.464 0 0 1 .463-.464.463.463 0 0 1 .463.463l.006 8.319c0 2.844-3.224 5.489-9.091 7.447-6.166 2.066-14.278 3.104-22.395 3.104zM7.573 116.672v5.731c0 2.467 3.286 4.915 9.006 6.715.2.062.392.122.591.181 12.1 3.614 31.313 3.428 42.824-.415 5.378-1.8 8.461-4.189 8.458-6.568v-5.733c-1.346 1.837-4.133 3.509-8.166 4.855-11.862 3.959-30.918 4.145-43.382.423-.2-.061-.4-.122-.6-.185-4.343-1.363-7.323-3.088-8.731-5.004z"/>
            </g>
            <g data-name="그룹 28011">
                <path data-name="패스 14831" d="m674.085 958.222.6.183c12.221 3.846 12.471 10.188.557 14.165-11.721 3.913-30.85 4.078-43.1.419q-.3-.09-.6-.183c-12.22-3.846-12.469-10.189-.556-14.165 11.719-3.912 30.846-4.077 43.099-.419z" transform="translate(-615.103 -851.569)" style="fill:#fff"/>
                <path data-name="패스 14832" d="M37.891 124.537a76.183 76.183 0 0 1-20.988-2.673c-.2-.061-.4-.122-.6-.185-6.2-1.951-9.629-4.64-9.654-7.572-.025-2.855 3.2-5.509 9.091-7.475 11.86-3.959 30.914-4.145 43.378-.424.2.061.405.122.606.185 6.2 1.952 9.631 4.641 9.656 7.572.025 2.855-3.2 5.509-9.091 7.474-6.169 2.059-14.281 3.098-22.398 3.098zm.264-20.033c-8.07 0-16.139 1.009-22.126 3.007-5.4 1.8-8.479 4.2-8.458 6.588.022 2.461 3.3 4.9 9.006 6.7.2.062.392.122.591.181 12.1 3.613 31.313 3.427 42.824-.414 5.4-1.8 8.478-4.2 8.458-6.588-.021-2.46-3.3-4.9-9.008-6.7-.2-.062-.392-.122-.592-.181a75.546 75.546 0 0 0-20.695-2.593z"/>
            </g>
        </g>
        <g data-name="그룹 28015">
            <g data-name="그룹 28013">
                <path data-name="패스 14833" d="m669.668 955.9.006 8.323c0 2.522-2.914 5.051-8.774 7.008-11.721 3.912-30.85 4.078-43.1.419q-.3-.09-.6-.183c-6.208-1.954-9.327-4.552-9.331-7.157l-.006-8.324c0 2.6 3.123 5.2 9.33 7.157q.3.093.6.183c12.254 3.659 31.382 3.493 43.1-.419 5.861-1.96 8.778-4.489 8.775-7.007z" transform="translate(-607.399 -851.734)" style="fill:#fff"/>
                <path data-name="패스 14834" d="M31.253 123.029a76.21 76.21 0 0 1-20.988-2.673c-.2-.061-.4-.122-.6-.185-6.221-1.958-9.65-4.657-9.655-7.6l-.007-8.323a.463.463 0 0 1 .463-.464.463.463 0 0 1 .463.462c0 2.468 3.286 4.916 9.007 6.716l.591.181c12.1 3.613 31.313 3.427 42.824-.415 5.378-1.8 8.461-4.189 8.458-6.567a.463.463 0 0 1 .462-.464.463.463 0 0 1 .463.462l.006 8.319c0 2.844-3.224 5.489-9.091 7.447-6.168 2.066-14.278 3.104-22.396 3.104zM.928 106.841v5.731c0 2.467 3.286 4.915 9.007 6.716.2.061.391.122.591.181 12.1 3.614 31.313 3.428 42.824-.415 5.378-1.8 8.461-4.189 8.458-6.568v-5.733c-1.346 1.838-4.133 3.509-8.167 4.855-11.861 3.959-30.918 4.145-43.382.423-.2-.06-.4-.122-.6-.185-4.342-1.364-7.321-3.089-8.73-5.006z"/>
            </g>
            <g data-name="그룹 28014">
                <path data-name="패스 14835" d="m659.737 936.993.6.183c12.222 3.846 12.471 10.188.558 14.165-11.721 3.913-30.85 4.078-43.1.419l-.6-.183c-12.22-3.846-12.469-10.188-.556-14.165 11.717-3.912 30.845-4.077 43.098-.419z" transform="translate(-607.399 -840.172)" style="fill:#fff"/>
                <path data-name="패스 14836" d="M31.246 114.705a76.19 76.19 0 0 1-20.988-2.673c-.2-.061-.4-.122-.6-.185-6.2-1.951-9.629-4.64-9.654-7.571-.025-2.855 3.2-5.509 9.09-7.474 11.861-3.959 30.915-4.145 43.379-.424.2.061.405.123.606.186 6.2 1.952 9.631 4.641 9.656 7.572.025 2.855-3.2 5.51-9.091 7.474-6.17 2.057-14.28 3.095-22.398 3.095zm.264-20.033c-8.07 0-16.139 1.009-22.126 3.008-5.4 1.8-8.479 4.2-8.458 6.588.021 2.461 3.3 4.9 9.006 6.7l.591.181c12.1 3.613 31.313 3.427 42.824-.415 5.4-1.8 8.478-4.2 8.457-6.588-.021-2.461-3.3-4.9-9.008-6.7-.2-.062-.392-.122-.592-.182a75.544 75.544 0 0 0-20.694-2.593z"/>
            </g>
        </g>
        <g data-name="그룹 28018">
            <g data-name="그룹 28016">
                <path data-name="패스 14837" d="m67.83 92.163.006 8.324c0 2.522-2.914 5.051-8.774 7.008-11.721 3.912-30.85 4.077-43.1.419l-.6-.183c-6.209-1.958-9.327-4.558-9.331-7.158l-.007-8.323c0 2.605 3.122 5.2 9.33 7.157l.6.183c12.253 3.659 31.382 3.494 43.1-.419 5.862-1.957 8.78-4.486 8.776-7.008z"/>
                <path data-name="패스 14838" d="M36.815 111.03a76.184 76.184 0 0 1-20.988-2.673c-.2-.061-.4-.122-.6-.185-6.222-1.958-9.65-4.657-9.655-7.6l-.006-8.323a.456.456 0 0 1 .463-.464.464.464 0 0 1 .463.463c0 2.468 3.286 4.915 9.006 6.716.2.062.392.122.591.181 12.1 3.613 31.313 3.428 42.824-.415 5.378-1.8 8.461-4.189 8.458-6.568a.463.463 0 0 1 .463-.464.463.463 0 0 1 .463.462l.007 8.319c0 2.844-3.224 5.489-9.091 7.447-6.169 2.066-14.281 3.104-22.398 3.104zM6.49 94.841v5.731c0 2.467 3.286 4.915 9.006 6.716.2.062.392.122.591.181 12.1 3.614 31.313 3.428 42.824-.414 5.378-1.8 8.461-4.189 8.458-6.568v-5.733c-1.346 1.838-4.132 3.509-8.166 4.856-11.862 3.959-30.918 4.145-43.383.424l-.6-.185c-4.341-1.366-7.322-3.091-8.73-5.008z"/>
            </g>
            <g data-name="그룹 28017">
                <path data-name="패스 14839" d="M671.746 911.087c.2.06.4.121.6.184 12.222 3.846 12.471 10.188.558 14.165-11.721 3.913-30.85 4.078-43.1.419l-.6-.183c-12.22-3.846-12.469-10.188-.556-14.165 11.718-3.912 30.845-4.078 43.098-.42z" transform="translate(-613.847 -826.265)" style="fill:#fff"/>
                <path data-name="패스 14840" d="M36.808 102.707a76.208 76.208 0 0 1-20.988-2.673l-.6-.185c-6.2-1.952-9.63-4.641-9.655-7.572-.024-2.855 3.2-5.509 9.091-7.475 11.86-3.958 30.915-4.145 43.379-.424l.605.186c6.2 1.951 9.631 4.64 9.656 7.571.025 2.855-3.2 5.51-9.09 7.475-6.169 2.058-14.281 3.097-22.398 3.097zm.264-20.033c-8.07 0-16.139 1.009-22.126 3.007-5.4 1.8-8.479 4.2-8.458 6.588.021 2.461 3.3 4.9 9.006 6.7.2.062.392.122.591.181 12.1 3.613 31.313 3.428 42.824-.414 5.4-1.8 8.478-4.2 8.458-6.588-.021-2.46-3.3-4.9-9.008-6.7-.2-.062-.392-.122-.592-.182a75.545 75.545 0 0 0-20.695-2.592z"/>
            </g>
            <path data-name="패스 14841" d="m54.138 89.593 1.068 1.287-3.718.521a1.811 1.811 0 0 1 .184 2.1l-5.09.288a1.694 1.694 0 0 0-.131-2.092 2.383 2.383 0 0 0-1.329-.751 5.562 5.562 0 0 0-1.972-.047 2.489 2.489 0 0 0-2.329 2.085c-.478 1.812-2.281 2.767-6.082 3.3a20.154 20.154 0 0 1-7.091-.176 8.213 8.213 0 0 1-2.663-1.067l-4.309.6-1.068-1.287 4.014-.563a2.048 2.048 0 0 1-.033-2.487l5.27-.3a1.847 1.847 0 0 0-.052 2.44 2.728 2.728 0 0 0 1.513.836 5.948 5.948 0 0 0 2.151.058c1.606-.225 2.271-.787 2.522-1.907.356-1.618 1.675-2.872 5.774-3.446a19.179 19.179 0 0 1 6.8.168 8.478 8.478 0 0 1 2.557 1z"/>
        </g>
    </g>
    <g data-name="그룹 28038">
        <g data-name="그룹 28022">
            <g data-name="그룹 28020">
                <path data-name="패스 14842" d="m175.66 114.147.006 8.265c0 2.5-2.892 5.015-8.712 6.958-11.638 3.885-30.632 4.049-42.8.416-.2-.06-.4-.12-.593-.182-6.164-1.94-9.26-4.52-9.264-7.106l-.006-8.265c0 2.587 3.1 5.167 9.265 7.106.2.062.393.122.593.182 12.167 3.633 31.16 3.469 42.8-.416 5.818-1.942 8.715-4.453 8.711-6.958z"/>
                <path data-name="패스 14843" d="M144.864 132.86a75.643 75.643 0 0 1-20.833-2.653c-.2-.061-.4-.121-.6-.184-6.167-1.941-9.567-4.613-9.571-7.524l-.006-8.265a.438.438 0 0 1 .438-.439.438.438 0 0 1 .438.438c0 2.46 3.268 4.9 8.958 6.689.194.061.389.12.587.18 12.02 3.589 31.1 3.4 42.535-.412 5.349-1.785 8.416-4.17 8.413-6.541a.439.439 0 0 1 .438-.439.438.438 0 0 1 .438.438l.006 8.264c0 2.814-3.2 5.433-9.011 7.374-6.121 2.043-14.173 3.073-22.23 3.074zm-30.132-16.115v5.756c0 2.46 3.269 4.9 8.958 6.689.194.061.389.121.587.18 12.02 3.589 31.1 3.4 42.534-.412 5.35-1.786 8.416-4.17 8.413-6.541v-5.759c-1.318 1.842-4.1 3.518-8.137 4.867-11.774 3.93-30.689 4.115-43.062.421-.2-.06-.4-.121-.6-.184-4.344-1.372-7.311-3.101-8.693-5.017z"/>
            </g>
            <g data-name="그룹 28021">
                <path data-name="패스 14844" d="M165.799 106.858c.2.06.4.12.6.182 12.135 3.819 12.382 10.116.554 14.065-11.638 3.885-30.632 4.049-42.8.416q-.3-.09-.593-.182c-12.134-3.819-12.381-10.116-.552-14.065 11.633-3.883 30.625-4.048 42.791-.416z"/>
                <path data-name="패스 14845" d="M144.858 124.595a75.638 75.638 0 0 1-20.834-2.653c-.2-.06-.4-.121-.6-.184-6.147-1.935-9.546-4.6-9.571-7.5-.024-2.825 3.176-5.453 9.012-7.4 11.773-3.929 30.687-4.114 43.059-.421.2.061.4.121.6.184 6.148 1.935 9.547 4.6 9.572 7.5.024 2.825-3.176 5.453-9.011 7.4-6.118 2.047-14.171 3.074-22.227 3.074zm.262-19.892c-8.016 0-16.03 1-21.977 2.987-5.367 1.792-8.433 4.184-8.413 6.563.021 2.453 3.286 4.884 8.958 6.669.194.061.389.12.587.18 12.02 3.589 31.1 3.4 42.534-.412 5.367-1.791 8.433-4.183 8.413-6.562-.021-2.453-3.287-4.884-8.959-6.669-.195-.061-.39-.121-.589-.181a75.037 75.037 0 0 0-20.554-2.574z"/>
            </g>
        </g>
        <g data-name="그룹 28025">
            <g data-name="그룹 28023">
                <path data-name="패스 14846" d="m831.181 949.106.007 8.265c0 2.5-2.893 5.016-8.712 6.958-11.638 3.885-30.632 4.049-42.8.416-.2-.06-.4-.12-.593-.182-6.164-1.94-9.261-4.52-9.264-7.106l-.007-8.265c0 2.587 3.1 5.166 9.264 7.107.2.062.393.122.593.182 12.167 3.633 31.16 3.468 42.8-.417 5.819-1.942 8.716-4.453 8.712-6.958z" transform="translate(-653.824 -846.42)" style="fill:#fff"/>
                <path data-name="패스 14847" d="M146.561 121.398a75.631 75.631 0 0 1-20.833-2.657c-.2-.06-.4-.121-.6-.184-6.168-1.941-9.567-4.613-9.571-7.524l-.006-8.265a.439.439 0 0 1 .438-.439.438.438 0 0 1 .438.437c0 2.461 3.268 4.9 8.958 6.69.195.061.389.121.587.18 12.02 3.589 31.1 3.4 42.534-.412 5.349-1.786 8.416-4.17 8.413-6.542a.438.438 0 0 1 .438-.439.438.438 0 0 1 .438.437l.006 8.26c0 2.814-3.2 5.433-9.012 7.374-6.119 2.053-14.171 3.084-22.228 3.084zm-30.132-16.119v5.756c0 2.46 3.268 4.9 8.958 6.689.194.061.389.121.587.18 12.02 3.589 31.1 3.4 42.534-.412 5.349-1.786 8.416-4.17 8.413-6.542v-5.759c-1.318 1.842-4.1 3.518-8.137 4.867-11.775 3.93-30.69 4.115-43.062.421-.2-.061-.4-.121-.6-.184-4.343-1.366-7.314-3.095-8.692-5.015z"/>
            </g>
            <g data-name="그룹 28024">
                <path data-name="패스 14848" d="M821.321 929.12c.2.06.4.12.595.182 12.135 3.819 12.383 10.116.554 14.065-11.639 3.885-30.632 4.049-42.8.416-.2-.06-.4-.12-.593-.182-12.133-3.819-12.381-10.116-.552-14.065 11.637-3.883 30.629-4.048 42.796-.416z" transform="translate(-653.824 -833.724)" style="fill:#fff"/>
                <path data-name="패스 14849" d="M146.554 113.133a75.611 75.611 0 0 1-20.833-2.653c-.2-.06-.4-.121-.6-.184-6.147-1.935-9.546-4.6-9.571-7.5-.025-2.825 3.176-5.453 9.012-7.4 11.773-3.929 30.686-4.114 43.059-.421.2.06.4.121.6.184 6.148 1.935 9.548 4.6 9.573 7.5.025 2.825-3.176 5.453-9.011 7.4-6.12 2.043-14.172 3.074-22.229 3.074zm.262-19.891c-8.016 0-16.03 1-21.977 2.987-5.367 1.791-8.433 4.183-8.413 6.562.021 2.453 3.286 4.884 8.957 6.669.195.061.389.121.587.18 12.02 3.589 31.1 3.4 42.534-.412 5.367-1.792 8.433-4.183 8.413-6.562-.021-2.454-3.287-4.884-8.959-6.67-.2-.061-.39-.121-.589-.18a75.039 75.039 0 0 0-20.552-2.574z"/>
            </g>
        </g>
        <g data-name="그룹 28028">
            <g data-name="그룹 28026">
                <path data-name="패스 14850" d="m820.084 922.746.006 8.264c0 2.5-2.893 5.016-8.712 6.958-11.639 3.885-30.632 4.049-42.8.416-.2-.06-.4-.12-.593-.182-6.164-1.94-9.26-4.52-9.264-7.106l-.006-8.265c0 2.587 3.1 5.166 9.264 7.107.2.062.393.122.593.182 12.167 3.633 31.16 3.468 42.8-.416 5.819-1.943 8.716-4.454 8.712-6.958z" transform="translate(-647.589 -831.612)" style="fill:#fff"/>
                <path data-name="패스 14851" d="M141.699 109.85a75.636 75.636 0 0 1-20.834-2.653c-.2-.061-.4-.121-.6-.184-6.168-1.941-9.567-4.613-9.571-7.524l-.006-8.264a.438.438 0 0 1 .438-.439.438.438 0 0 1 .438.438c0 2.46 3.268 4.9 8.958 6.689.194.061.389.121.587.18 12.02 3.589 31.1 3.4 42.534-.412 5.35-1.786 8.416-4.17 8.413-6.541a.438.438 0 0 1 .438-.439.438.438 0 0 1 .438.437l.007 8.265c0 2.814-3.2 5.432-9.012 7.374-6.119 2.038-14.171 3.073-22.228 3.073zm-30.132-16.119v5.757c0 2.46 3.268 4.9 8.958 6.689.194.061.389.121.587.18 12.02 3.589 31.1 3.4 42.534-.412 5.35-1.786 8.416-4.17 8.413-6.542v-5.759c-1.318 1.842-4.1 3.518-8.137 4.867-11.774 3.93-30.69 4.114-43.062.42-.2-.06-.4-.121-.6-.184-4.344-1.37-7.314-3.097-8.693-5.02z"/>
            </g>
            <g data-name="그룹 28027">
                <path data-name="패스 14852" d="m810.223 902.759.6.182c12.135 3.819 12.382 10.116.554 14.065-11.638 3.885-30.632 4.049-42.8.416-.2-.06-.4-.12-.593-.182-12.134-3.819-12.381-10.116-.552-14.065 11.633-3.883 30.625-4.047 42.791-.416z" transform="translate(-647.588 -818.915)" style="fill:#fff"/>
                <path data-name="패스 14853" d="M141.693 101.581a75.619 75.619 0 0 1-20.834-2.653c-.2-.061-.4-.121-.6-.184-6.147-1.935-9.546-4.6-9.571-7.5-.024-2.825 3.176-5.453 9.012-7.4 11.773-3.929 30.687-4.114 43.059-.421.2.06.4.122.6.184 6.148 1.935 9.547 4.6 9.573 7.5.024 2.825-3.176 5.453-9.012 7.4-6.118 2.043-14.17 3.073-22.227 3.074zm.262-19.891c-8.016 0-16.03 1-21.977 2.987-5.367 1.792-8.434 4.183-8.413 6.562.021 2.453 3.286 4.884 8.958 6.669.194.061.389.121.587.179 12.02 3.589 31.1 3.4 42.534-.412 5.367-1.791 8.433-4.183 8.413-6.562-.022-2.453-3.287-4.884-8.959-6.669-.195-.062-.39-.121-.589-.18a75.036 75.036 0 0 0-20.554-2.575z"/>
            </g>
        </g>
        <g data-name="그룹 28031">
            <g data-name="그룹 28029">
                <path data-name="패스 14854" d="m833.841 901.03.006 8.265c0 2.5-2.893 5.015-8.712 6.958-11.639 3.885-30.632 4.049-42.8.416-.2-.06-.4-.12-.593-.182-6.164-1.94-9.26-4.52-9.264-7.106l-.006-8.265c0 2.586 3.1 5.166 9.264 7.106.2.062.393.122.593.182 12.167 3.632 31.16 3.468 42.8-.416 5.819-1.942 8.716-4.453 8.712-6.958z" transform="translate(-655.318 -819.412)" style="fill:#ff754b"/>
                <path data-name="패스 14855" d="M147.727 100.331a75.615 75.615 0 0 1-20.833-2.654c-.2-.06-.4-.122-.6-.184-6.168-1.941-9.567-4.614-9.571-7.524l-.007-8.264a.438.438 0 0 1 .438-.439.438.438 0 0 1 .438.438c0 2.46 3.269 4.9 8.958 6.689.194.061.389.121.587.18 12.021 3.589 31.1 3.4 42.534-.412 5.35-1.786 8.416-4.17 8.413-6.541a.439.439 0 0 1 .438-.439.438.438 0 0 1 .438.438l.007 8.261c0 2.814-3.2 5.433-9.012 7.374-6.119 2.046-14.17 3.076-22.228 3.077zm-30.132-16.119v5.757c0 2.46 3.268 4.9 8.958 6.689.194.061.389.121.587.18 12.02 3.589 31.1 3.4 42.534-.412 5.35-1.786 8.416-4.171 8.413-6.542v-5.758c-1.318 1.842-4.1 3.518-8.137 4.867-11.775 3.93-30.69 4.115-43.063.421-.2-.061-.4-.121-.6-.184-4.343-1.368-7.313-3.098-8.692-5.018z"/>
            </g>
            <g data-name="그룹 28030">
                <path data-name="패스 14856" d="M823.98 881.044c.2.06.4.12.6.182 12.135 3.819 12.382 10.116.554 14.065-11.638 3.885-30.632 4.049-42.8.416-.2-.06-.4-.12-.593-.182-12.133-3.819-12.381-10.116-.552-14.065 11.633-3.883 30.625-4.048 42.791-.416z" transform="translate(-655.318 -806.715)" style="fill:#fff"/>
                <path data-name="패스 14857" d="M147.721 92.066a75.638 75.638 0 0 1-20.834-2.653l-.6-.184c-6.147-1.935-9.546-4.6-9.571-7.5-.025-2.825 3.176-5.453 9.012-7.4 11.773-3.929 30.687-4.114 43.059-.421.2.06.4.121.6.184 6.148 1.935 9.547 4.6 9.573 7.5.024 2.825-3.176 5.453-9.012 7.4-6.118 2.043-14.17 3.074-22.227 3.074zm.262-19.892c-8.016 0-16.03 1-21.977 2.987-5.367 1.792-8.433 4.183-8.413 6.563.021 2.453 3.286 4.884 8.958 6.669.194.061.389.12.587.18 12.021 3.589 31.1 3.4 42.534-.412 5.367-1.791 8.433-4.183 8.413-6.562-.021-2.453-3.287-4.884-8.96-6.669a59.163 59.163 0 0 0-.588-.181 75.04 75.04 0 0 0-20.554-2.576z"/>
            </g>
        </g>
        <g data-name="그룹 28034">
            <g data-name="그룹 28032">
                <path data-name="패스 14858" d="m817.568 879.52.007 8.265c0 2.5-2.893 5.015-8.712 6.958-11.638 3.885-30.632 4.049-42.8.416-.2-.06-.4-.12-.593-.182-6.165-1.94-9.261-4.52-9.265-7.107l-.006-8.265c0 2.586 3.1 5.166 9.264 7.106.2.062.393.122.593.182 12.166 3.633 31.16 3.469 42.8-.416 5.819-1.942 8.716-4.453 8.712-6.957z" transform="translate(-646.176 -807.328)" style="fill:#fff"/>
                <path data-name="패스 14859" d="M140.596 90.904a75.6 75.6 0 0 1-20.834-2.653c-.2-.061-.4-.121-.6-.184-6.168-1.942-9.567-4.614-9.571-7.524l-.007-8.265a.438.438 0 0 1 .438-.439.438.438 0 0 1 .438.437c0 2.46 3.268 4.9 8.958 6.689.194.061.389.121.587.18 12.02 3.589 31.1 3.4 42.534-.412 5.349-1.786 8.416-4.171 8.413-6.542a.421.421 0 0 1 .438-.438.438.438 0 0 1 .438.438l.006 8.265c0 2.814-3.2 5.433-9.012 7.374-6.117 2.043-14.169 3.074-22.226 3.074zm-30.131-16.119v5.757c0 2.46 3.268 4.9 8.958 6.689.194.061.389.121.587.18 12.02 3.589 31.1 3.4 42.534-.412 5.35-1.786 8.416-4.17 8.413-6.542v-5.758c-1.318 1.841-4.1 3.518-8.137 4.867-11.774 3.93-30.69 4.115-43.062.42q-.3-.09-.6-.184c-4.344-1.367-7.315-3.097-8.693-5.017z"/>
            </g>
            <g data-name="그룹 28033">
                <path data-name="패스 14860" d="M807.708 859.534c.2.06.4.12.595.182 12.135 3.819 12.383 10.116.554 14.065-11.639 3.885-30.632 4.049-42.8.416-.2-.06-.4-.12-.593-.182-12.133-3.819-12.381-10.116-.552-14.065 11.637-3.883 30.629-4.05 42.796-.416z" transform="translate(-646.176 -794.63)" style="fill:#fff"/>
                <path data-name="패스 14861" d="M140.586 82.64a75.615 75.615 0 0 1-20.833-2.654q-.3-.09-.6-.183c-6.147-1.935-9.546-4.6-9.571-7.5-.024-2.825 3.176-5.453 9.012-7.4 11.773-3.929 30.687-4.114 43.06-.421.2.061.4.122.6.185 6.148 1.935 9.548 4.6 9.573 7.5.025 2.824-3.176 5.453-9.012 7.4-6.116 2.042-14.168 3.073-22.229 3.073zm.262-19.891c-8.016 0-16.03 1-21.977 2.987-5.367 1.791-8.433 4.183-8.413 6.562.021 2.453 3.286 4.884 8.958 6.669.194.061.389.121.587.18 12.02 3.589 31.1 3.4 42.534-.412 5.367-1.792 8.433-4.184 8.413-6.562-.021-2.453-3.287-4.884-8.959-6.669a41.03 41.03 0 0 0-.589-.18 75.035 75.035 0 0 0-20.55-2.575z"/>
            </g>
        </g>
        <g data-name="그룹 28037">
            <g data-name="그룹 28035">
                <path data-name="패스 14862" d="m829.418 855.276.007 8.265c0 2.5-2.893 5.015-8.712 6.958-11.638 3.885-30.632 4.048-42.8.416-.2-.06-.4-.12-.593-.182-6.165-1.94-9.261-4.52-9.265-7.107l-.006-8.265c0 2.587 3.1 5.167 9.264 7.107.2.062.393.122.593.182 12.166 3.633 31.16 3.468 42.8-.416 5.819-1.943 8.715-4.454 8.712-6.958z" transform="translate(-652.833 -793.707)" style="fill:#fff"/>
                <path data-name="패스 14863" d="M145.789 80.281a75.63 75.63 0 0 1-20.834-2.653c-.2-.06-.4-.121-.6-.184-6.168-1.941-9.567-4.614-9.571-7.524l-.007-8.265a.429.429 0 0 1 .438-.439.438.438 0 0 1 .438.438c0 2.46 3.268 4.9 8.958 6.689.194.061.389.121.587.18 12.02 3.589 31.1 3.4 42.534-.412 5.35-1.786 8.416-4.17 8.413-6.542a.438.438 0 0 1 .438-.439.438.438 0 0 1 .438.437l.006 8.265c0 2.814-3.2 5.432-9.012 7.374-6.117 2.049-14.169 3.075-22.226 3.075zm-30.132-16.119v5.757c0 2.46 3.268 4.9 8.958 6.689.194.061.389.121.587.18 12.02 3.589 31.1 3.4 42.535-.412 5.349-1.786 8.416-4.17 8.413-6.542v-5.758c-1.318 1.841-4.1 3.517-8.137 4.867-11.774 3.93-30.689 4.115-43.062.42-.2-.06-.4-.121-.6-.184-4.345-1.367-7.315-3.096-8.694-5.017z"/>
            </g>
            <g data-name="그룹 28036">
                <path data-name="패스 14864" d="M819.557 835.289c.2.06.4.12.595.183 12.135 3.819 12.383 10.116.553 14.064-11.638 3.885-30.632 4.049-42.8.416-.2-.06-.4-.12-.593-.182-12.133-3.819-12.381-10.116-.552-14.065 11.64-3.883 30.631-4.047 42.797-.416z" transform="translate(-652.833 -781.01)" style="fill:#fff"/>
                <path data-name="패스 14865" d="M145.783 72.016a75.613 75.613 0 0 1-20.833-2.653c-.2-.06-.4-.121-.6-.184-6.147-1.935-9.546-4.6-9.571-7.5-.024-2.825 3.176-5.453 9.012-7.4 11.773-3.93 30.687-4.114 43.059-.421l.6.184c6.147 1.935 9.547 4.6 9.572 7.5.025 2.824-3.176 5.452-9.012 7.4-6.118 2.043-14.17 3.074-22.227 3.074zm.262-19.891c-8.016 0-16.03 1-21.977 2.987-5.367 1.791-8.434 4.184-8.413 6.562.021 2.453 3.286 4.884 8.958 6.669.194.061.389.121.587.18 12.02 3.589 31.1 3.4 42.534-.412 5.367-1.792 8.433-4.183 8.413-6.562-.021-2.453-3.286-4.884-8.959-6.669-.195-.062-.39-.121-.589-.181a75.033 75.033 0 0 0-20.554-2.575z"/>
            </g>
            <path data-name="패스 14866" d="m153.431 55.758-1.473 1.288a23.982 23.982 0 0 1 3.114.582 10.862 10.862 0 0 1 1.325.439l-2.889 1.547c-.371-.134-.874-.337-1.622-.537a18.079 18.079 0 0 0-2.764-.495c-2.236-.241-3.426.091-3.9.5-.552.483.3.92 2.691 1.7 3.391 1.056 4.123 2.039 2.615 3.356-1.488 1.3-4.927 2.181-9.219 2.046l-1.707 1.494-3.371-.364 1.589-1.39a26.633 26.633 0 0 1-3.386-.651 10.047 10.047 0 0 1-1.744-.609l2.99-1.6a12.822 12.822 0 0 0 2.05.725 19.305 19.305 0 0 0 2.927.535c1.961.211 3.67.034 4.34-.552.635-.555-.065-1.025-2.192-1.665-3.08-.924-4.754-1.927-3.132-3.347 1.474-1.287 4.76-2.068 8.793-1.978l1.589-1.39z"/>
        </g>
    </g>
    <g data-name="그룹 28067">
        <g data-name="그룹 28066">
            <g data-name="그룹 28041">
                <g data-name="그룹 28039">
                    <path data-name="패스 14867" d="m981.008 974.98.006 8.057c0 2.442-2.82 4.889-8.492 6.782-11.345 3.787-29.859 3.947-41.719.406a39.501 39.501 0 0 1-.578-.177c-6.009-1.891-9.027-4.406-9.031-6.927l-.006-8.056c0 2.521 3.022 5.036 9.03 6.927.191.06.384.119.578.177 11.86 3.541 30.374 3.381 41.719-.405 5.673-1.895 8.497-4.342 8.493-6.784z" transform="translate(-697.66 -860.36)" style="fill:#fff"/>
                    <path data-name="패스 14868" d="M253.329 132.861a73.7 73.7 0 0 1-20.308-2.587c-.2-.058-.391-.118-.584-.179-6.013-1.892-9.326-4.5-9.33-7.334l-.006-8.056a.427.427 0 0 1 .426-.428.428.428 0 0 1 .427.426c0 2.4 3.186 4.775 8.732 6.521.189.059.379.118.572.175 11.717 3.5 30.317 3.318 41.461-.4 5.215-1.741 8.2-4.065 8.2-6.376a.427.427 0 0 1 .427-.428.427.427 0 0 1 .427.427l.006 8.056c0 2.743-3.116 5.3-8.784 7.188-5.964 1.99-13.812 2.994-21.666 2.995zm-29.372-15.712v5.611c0 2.4 3.186 4.775 8.732 6.52.19.06.38.118.573.176 11.717 3.5 30.316 3.319 41.461-.4 5.215-1.741 8.2-4.065 8.2-6.377v-5.613c-1.284 1.8-3.993 3.429-7.932 4.744-11.477 3.831-29.915 4.011-41.976.41-.2-.059-.391-.118-.584-.18-4.235-1.334-7.13-3.02-8.474-4.892z"/>
                </g>
                <g data-name="그룹 28040">
                    <path data-name="패스 14869" d="M971.4 954.928c.2.059.388.117.58.178 11.829 3.723 12.07 9.861.54 13.71-11.345 3.787-29.859 3.946-41.719.405a39.501 39.501 0 0 1-.578-.177c-11.827-3.723-12.069-9.861-.538-13.71 11.339-3.786 29.851-3.946 41.715-.406z" transform="translate(-697.659 -847.413)" style="fill:#fff"/>
                    <path data-name="패스 14870" d="M253.323 124.805a73.723 73.723 0 0 1-20.308-2.586c-.2-.059-.391-.118-.584-.18-5.992-1.886-9.305-4.481-9.329-7.308-.024-2.753 3.1-5.316 8.784-7.215 11.476-3.83 29.913-4.01 41.973-.41.2.059.392.118.586.179 5.993 1.886 9.307 4.482 9.331 7.309.024 2.753-3.1 5.315-8.784 7.214-5.967 1.991-13.815 2.996-21.669 2.997zm.256-19.39c-7.813 0-15.626.977-21.423 2.911-5.232 1.746-8.221 4.078-8.2 6.4.021 2.391 3.2 4.761 8.732 6.5.189.059.379.118.572.175 11.717 3.5 30.316 3.318 41.461-.4 5.232-1.746 8.22-4.078 8.2-6.4-.021-2.391-3.2-4.761-8.733-6.5-.19-.06-.38-.118-.574-.176a73.166 73.166 0 0 0-20.036-2.51z"/>
                </g>
            </g>
            <g data-name="그룹 28044">
                <g data-name="그룹 28042">
                    <path data-name="패스 14871" d="m988.5 951.282.006 8.056c0 2.441-2.82 4.889-8.493 6.783-11.345 3.787-29.859 3.947-41.719.405a39.501 39.501 0 0 1-.578-.177c-6.009-1.891-9.027-4.406-9.031-6.927l-.006-8.056c0 2.521 3.022 5.036 9.031 6.927.191.06.384.119.578.177 11.86 3.541 30.374 3.381 41.719-.406 5.673-1.893 8.493-4.341 8.493-6.782z" transform="translate(-701.952 -846.784)" style="fill:#ff754b"/>
                    <path data-name="패스 14872" d="M256.53 122.738a73.727 73.727 0 0 1-20.308-2.586c-.2-.059-.391-.118-.584-.179-6.013-1.892-9.326-4.5-9.33-7.334l-.006-8.056a.428.428 0 0 1 .427-.428.427.427 0 0 1 .427.427c0 2.4 3.186 4.775 8.732 6.52.189.059.379.118.572.175 11.717 3.5 30.317 3.319 41.461-.4 5.214-1.74 8.2-4.065 8.2-6.376a.427.427 0 0 1 .427-.428.427.427 0 0 1 .427.426l.006 8.056c0 2.743-3.116 5.3-8.784 7.188-5.965 1.99-13.814 2.995-21.667 2.995zm-29.372-15.712v5.611c0 2.4 3.186 4.775 8.732 6.52.189.06.379.118.572.176 11.717 3.5 30.317 3.318 41.461-.4 5.215-1.741 8.2-4.065 8.2-6.377v-5.614c-1.285 1.8-3.993 3.429-7.932 4.744-11.478 3.831-29.916 4.01-41.976.41a34.01 34.01 0 0 1-.585-.179c-4.233-1.333-7.129-3.019-8.473-4.891z"/>
                </g>
                <g data-name="그룹 28043">
                    <path data-name="패스 14873" d="M978.889 931.229c.2.059.387.117.58.178 11.829 3.723 12.07 9.861.54 13.71-11.345 3.787-29.859 3.947-41.719.406a39.501 39.501 0 0 1-.578-.177c-11.827-3.723-12.069-9.861-.538-13.71 11.342-3.787 29.855-3.947 41.715-.407z" transform="translate(-701.952 -833.837)" style="fill:#fff"/>
                    <path data-name="패스 14874" d="M256.521 114.681a73.726 73.726 0 0 1-20.308-2.586c-.2-.059-.391-.118-.584-.179-5.992-1.886-9.3-4.482-9.33-7.309-.024-2.753 3.1-5.316 8.785-7.215 11.476-3.83 29.913-4.01 41.973-.41.2.059.392.119.586.18 5.993 1.886 9.307 4.481 9.331 7.308.024 2.754-3.1 5.316-8.784 7.215-5.969 1.991-13.813 2.996-21.669 2.996zm.255-19.39c-7.814 0-15.625.977-21.422 2.912-5.232 1.746-8.221 4.078-8.2 6.4.021 2.391 3.2 4.76 8.732 6.5.189.059.379.118.573.175 11.717 3.5 30.316 3.318 41.461-.4 5.232-1.746 8.22-4.078 8.2-6.4-.021-2.392-3.2-4.761-8.733-6.5-.19-.06-.38-.118-.574-.176a73.163 73.163 0 0 0-20.035-2.51z"/>
                </g>
            </g>
            <g data-name="그룹 28047">
                <g data-name="그룹 28045">
                    <path data-name="패스 14875" d="m977.9 930.548.006 8.057c0 2.442-2.82 4.889-8.493 6.783-11.345 3.786-29.859 3.946-41.718.405-.2-.058-.387-.117-.578-.177-6.009-1.891-9.027-4.406-9.031-6.927l-.006-8.056c0 2.521 3.022 5.036 9.031 6.927.191.06.383.119.578.178 11.86 3.541 30.374 3.381 41.719-.406 5.668-1.895 8.492-4.342 8.492-6.784z" transform="translate(-695.878 -834.907)" style="fill:#fff"/>
                    <path data-name="패스 14876" d="M251.995 113.882a73.714 73.714 0 0 1-20.3-2.587c-.2-.058-.391-.118-.584-.179-6.012-1.892-9.326-4.5-9.329-7.334l-.006-8.056a.428.428 0 0 1 .427-.428.427.427 0 0 1 .427.427c0 2.4 3.186 4.775 8.732 6.521.189.059.379.117.572.175 11.717 3.5 30.317 3.318 41.461-.4 5.215-1.741 8.2-4.065 8.2-6.377a.432.432 0 0 1 .427-.428.427.427 0 0 1 .427.427l.006 8.056c0 2.743-3.116 5.3-8.784 7.188-5.969 1.99-13.818 2.994-21.676 2.995zm-29.368-15.716v5.611c0 2.4 3.186 4.775 8.732 6.52.189.06.379.118.572.176 11.717 3.5 30.316 3.318 41.461-.4 5.215-1.741 8.2-4.065 8.2-6.377v-5.613c-1.285 1.8-3.993 3.429-7.932 4.744-11.478 3.831-29.916 4.011-41.976.41-.2-.059-.391-.119-.584-.179-4.233-1.331-7.129-3.017-8.473-4.892z"/>
                </g>
                <g data-name="그룹 28046">
                    <path data-name="패스 14877" d="M968.284 910.5c.2.059.387.118.58.178 11.829 3.723 12.07 9.861.54 13.71-11.345 3.787-29.859 3.947-41.719.406-.2-.058-.387-.117-.578-.178-11.827-3.723-12.069-9.861-.538-13.71 11.343-3.79 29.856-3.95 41.715-.406z" transform="translate(-695.878 -821.96)" style="fill:#fff"/>
                    <path data-name="패스 14878" d="M251.995 105.826a73.724 73.724 0 0 1-20.31-2.587c-.2-.059-.391-.118-.584-.179-5.992-1.886-9.306-4.481-9.33-7.308-.024-2.753 3.1-5.315 8.785-7.214 11.476-3.83 29.913-4.011 41.973-.41.2.059.392.118.586.179 5.993 1.886 9.307 4.482 9.331 7.309.024 2.753-3.1 5.315-8.784 7.214-5.967 1.991-13.815 2.996-21.667 2.996zm.255-19.39c-7.813 0-15.625.977-21.422 2.912-5.232 1.747-8.221 4.078-8.2 6.4.021 2.391 3.2 4.76 8.732 6.5.189.059.379.117.572.175 11.717 3.5 30.316 3.318 41.461-.4 5.232-1.746 8.22-4.077 8.2-6.4-.021-2.391-3.2-4.761-8.733-6.5-.19-.06-.38-.118-.574-.176a73.144 73.144 0 0 0-20.038-2.508z"/>
                </g>
            </g>
            <g data-name="그룹 28050">
                <g data-name="그룹 28048">
                    <path data-name="패스 14879" d="m983.653 903.133.006 8.056c0 2.442-2.82 4.889-8.493 6.782-11.345 3.787-29.859 3.947-41.719.406a39.501 39.501 0 0 1-.578-.177c-6.009-1.891-9.027-4.406-9.031-6.927l-.006-8.056c0 2.521 3.022 5.036 9.031 6.927.191.06.383.119.578.177 11.859 3.541 30.374 3.381 41.719-.405 5.673-1.894 8.497-4.341 8.493-6.783z" transform="translate(-699.176 -819.203)" style="fill:#fff"/>
                    <path data-name="패스 14880" d="M254.458 102.17a73.705 73.705 0 0 1-20.308-2.587c-.2-.058-.391-.118-.584-.179-6.012-1.892-9.326-4.5-9.329-7.334l-.006-8.056a.427.427 0 0 1 .427-.428.427.427 0 0 1 .427.426c0 2.4 3.186 4.775 8.732 6.521.189.059.379.118.572.175 11.717 3.5 30.316 3.319 41.461-.4 5.215-1.741 8.2-4.065 8.2-6.376a.428.428 0 0 1 .427-.428.427.427 0 0 1 .427.427l.006 8.056c0 2.743-3.116 5.3-8.784 7.188-5.965 1.995-13.814 2.995-21.668 2.995zm-29.372-15.712v5.612c0 2.4 3.186 4.775 8.732 6.52.189.06.379.118.572.176 11.717 3.5 30.317 3.318 41.462-.4 5.215-1.741 8.2-4.065 8.2-6.377v-5.613c-1.285 1.8-3.993 3.429-7.932 4.744-11.477 3.831-29.915 4.011-41.976.41-.2-.059-.391-.118-.584-.179-4.234-1.335-7.13-3.021-8.474-4.893z"/>
                </g>
                <g data-name="그룹 28049">
                    <path data-name="패스 14881" d="M974.042 883.081c.2.059.387.118.58.178 11.829 3.723 12.07 9.861.54 13.71-11.345 3.787-29.86 3.947-41.719.405-.2-.058-.387-.117-.578-.177-11.827-3.723-12.069-9.861-.538-13.71 11.342-3.787 29.855-3.946 41.715-.406z" transform="translate(-699.176 -806.256)" style="fill:#fff"/>
                    <path data-name="패스 14882" d="M254.452 94.115a73.722 73.722 0 0 1-20.308-2.587q-.295-.088-.584-.179c-5.992-1.886-9.305-4.481-9.33-7.308-.023-2.754 3.1-5.316 8.784-7.215 11.476-3.83 29.913-4.01 41.973-.41.2.059.392.118.586.179 5.993 1.886 9.306 4.482 9.331 7.309.023 2.754-3.1 5.316-8.784 7.214-5.966 1.992-13.814 2.996-21.668 2.997zm.255-19.39c-7.813 0-15.626.977-21.422 2.912-5.232 1.747-8.221 4.078-8.2 6.4.021 2.391 3.2 4.761 8.732 6.5.189.059.379.117.572.175 11.717 3.5 30.317 3.319 41.461-.4 5.231-1.746 8.22-4.077 8.2-6.4-.021-2.391-3.2-4.761-8.733-6.5-.19-.06-.38-.118-.573-.176a73.148 73.148 0 0 0-20.037-2.511z"/>
                </g>
            </g>
            <g data-name="그룹 28053">
                <g data-name="그룹 28051">
                    <path data-name="패스 14883" d="m980.717 879.915.006 8.057c0 2.442-2.82 4.889-8.493 6.783-11.345 3.786-29.859 3.946-41.719.405a39.501 39.501 0 0 1-.578-.177c-6.009-1.891-9.027-4.406-9.03-6.927L920.9 880c0 2.521 3.022 5.036 9.031 6.927.191.06.383.119.578.178 11.86 3.541 30.374 3.381 41.719-.406 5.672-1.899 8.492-4.342 8.489-6.784z" transform="translate(-697.494 -805.902)" style="fill:#fff"/>
                    <path data-name="패스 14884" d="M253.204 92.254a73.713 73.713 0 0 1-20.308-2.583c-.2-.059-.391-.118-.584-.179-6.012-1.892-9.326-4.5-9.329-7.334l-.007-8.056a.427.427 0 0 1 .427-.427.427.427 0 0 1 .427.427c0 2.4 3.186 4.775 8.732 6.521.189.059.379.118.572.175 11.717 3.5 30.316 3.318 41.461-.4 5.215-1.741 8.2-4.065 8.2-6.376a.427.427 0 0 1 .427-.428.427.427 0 0 1 .427.427l.006 8.056c0 2.743-3.116 5.3-8.785 7.188-5.963 1.984-13.812 2.988-21.666 2.989zm-29.372-15.713v5.611c0 2.4 3.186 4.775 8.732 6.52.189.06.379.118.572.176 11.717 3.5 30.316 3.318 41.461-.4 5.215-1.741 8.2-4.065 8.2-6.377v-5.613c-1.285 1.8-3.993 3.429-7.932 4.744-11.477 3.831-29.915 4.011-41.976.41-.2-.059-.391-.118-.584-.179-4.233-1.334-7.126-3.02-8.473-4.892z"/>
                </g>
                <g data-name="그룹 28052">
                    <path data-name="패스 14885" d="M971.1 859.863c.2.059.388.117.58.178 11.829 3.723 12.07 9.861.54 13.71-11.345 3.787-29.859 3.946-41.719.406a39.474 39.474 0 0 1-.578-.178c-11.827-3.723-12.069-9.861-.538-13.71 11.348-3.786 29.861-3.946 41.715-.406z" transform="translate(-697.494 -792.955)" style="fill:#fff"/>
                    <path data-name="패스 14886" d="M253.198 84.198a73.732 73.732 0 0 1-20.308-2.586c-.2-.059-.391-.118-.584-.179-5.992-1.886-9.305-4.481-9.329-7.308-.024-2.754 3.1-5.315 8.784-7.214 11.476-3.83 29.912-4.011 41.973-.41.2.059.392.118.586.18 5.993 1.886 9.306 4.482 9.331 7.308.023 2.753-3.1 5.315-8.784 7.214-5.966 1.989-13.815 2.995-21.669 2.995zm.255-19.39c-7.813 0-15.626.977-21.422 2.912-5.232 1.747-8.221 4.078-8.2 6.4.021 2.391 3.2 4.761 8.732 6.5.189.059.379.118.573.175 11.717 3.5 30.316 3.319 41.461-.4 5.231-1.746 8.22-4.078 8.2-6.4-.021-2.392-3.2-4.761-8.734-6.5-.19-.06-.38-.118-.574-.176a73.142 73.142 0 0 0-20.036-2.511z"/>
                </g>
            </g>
            <g data-name="그룹 28056">
                <g data-name="그룹 28054">
                    <path data-name="패스 14887" d="m975.181 853.715.006 8.056c0 2.442-2.82 4.889-8.492 6.783-11.345 3.787-29.859 3.946-41.719.405-.2-.058-.387-.117-.578-.177-6.009-1.891-9.027-4.406-9.031-6.927l-.006-8.057c0 2.521 3.022 5.036 9.031 6.927.191.06.384.119.578.177 11.86 3.541 30.374 3.381 41.719-.406 5.671-1.896 8.495-4.34 8.492-6.781z" transform="translate(-694.321 -790.893)" style="fill:#fff"/>
                    <path data-name="패스 14888" d="M250.84 81.062a73.728 73.728 0 0 1-20.308-2.586c-.2-.059-.391-.118-.584-.179-6.013-1.892-9.326-4.5-9.33-7.334l-.006-8.056a.427.427 0 0 1 .427-.427.427.427 0 0 1 .427.427c0 2.4 3.186 4.775 8.732 6.521.189.059.379.118.572.175 11.717 3.5 30.317 3.318 41.461-.4 5.215-1.741 8.2-4.065 8.2-6.377a.427.427 0 0 1 .427-.427.426.426 0 0 1 .427.426l.006 8.052c0 2.743-3.116 5.3-8.784 7.188-5.965 1.992-13.813 2.997-21.667 2.997zM221.468 65.35v5.611c0 2.4 3.186 4.775 8.732 6.52.19.06.38.118.572.176 11.717 3.5 30.317 3.318 41.461-.4 5.215-1.741 8.2-4.065 8.2-6.377v-5.613c-1.284 1.8-3.993 3.429-7.932 4.744-11.478 3.831-29.916 4.011-41.976.41-.2-.059-.391-.118-.584-.179-4.234-1.335-7.129-3.021-8.473-4.892z"/>
                </g>
                <g data-name="그룹 28055">
                    <path data-name="패스 14889" d="M965.569 833.662c.2.058.388.117.58.178 11.829 3.723 12.07 9.861.54 13.71-11.345 3.787-29.859 3.947-41.719.406-.195-.059-.387-.117-.578-.177-11.827-3.723-12.069-9.861-.538-13.71 11.346-3.787 29.855-3.947 41.715-.407z" transform="translate(-694.321 -777.946)" style="fill:#fff"/>
                    <path data-name="패스 14890" d="M250.834 73.006a73.722 73.722 0 0 1-20.308-2.586c-.2-.059-.391-.118-.584-.179-5.992-1.886-9.3-4.481-9.329-7.308-.024-2.753 3.1-5.315 8.784-7.215 11.476-3.83 29.913-4.011 41.973-.41.2.059.392.118.586.179 5.993 1.886 9.307 4.482 9.331 7.308.024 2.754-3.1 5.316-8.784 7.214-5.967 1.992-13.816 2.996-21.669 2.997zm.256-19.39c-7.813 0-15.626.977-21.423 2.911-5.232 1.747-8.22 4.078-8.2 6.4.02 2.391 3.2 4.76 8.732 6.5q.284.089.572.175c11.717 3.5 30.317 3.319 41.461-.4 5.232-1.746 8.22-4.077 8.2-6.4-.021-2.391-3.2-4.761-8.733-6.5-.19-.06-.38-.118-.574-.176a73.156 73.156 0 0 0-20.036-2.51z"/>
                </g>
            </g>
            <g data-name="그룹 28059">
                <g data-name="그룹 28057">
                    <path data-name="패스 14891" d="m283.366 52.106.006 8.056c0 2.442-2.82 4.889-8.493 6.783-11.345 3.787-29.859 3.946-41.719.406q-.292-.087-.578-.177c-6.009-1.891-9.027-4.406-9.031-6.927l-.006-8.057c0 2.522 3.022 5.036 9.031 6.928.191.06.383.119.578.177 11.859 3.541 30.374 3.381 41.718-.406 5.674-1.894 8.498-4.342 8.494-6.783z"/>
                    <path data-name="패스 14892" d="M253.347 70.351a73.726 73.726 0 0 1-20.308-2.586c-.2-.059-.391-.118-.584-.179-6.012-1.892-9.325-4.5-9.329-7.334l-.007-8.056a.427.427 0 0 1 .427-.427.427.427 0 0 1 .427.427c0 2.4 3.186 4.775 8.732 6.52.189.06.379.118.572.175 11.717 3.5 30.317 3.318 41.461-.4 5.215-1.741 8.2-4.065 8.2-6.377a.427.427 0 0 1 .427-.427.427.427 0 0 1 .427.426l.006 8.056c0 2.743-3.116 5.3-8.784 7.188-5.964 1.984-13.813 2.989-21.667 2.994zm-29.372-15.712v5.612c0 2.4 3.186 4.775 8.732 6.521.189.059.379.117.572.175 11.717 3.5 30.316 3.319 41.462-.4 5.215-1.741 8.2-4.065 8.2-6.377v-5.614c-1.285 1.8-3.993 3.429-7.932 4.744-11.478 3.831-29.916 4.011-41.976.41-.2-.059-.391-.118-.584-.179-4.235-1.339-7.13-3.026-8.474-4.897z"/>
                </g>
                <g data-name="그룹 28058">
                    <path data-name="패스 14893" d="M971.44 808.575c.2.059.388.118.58.178 11.829 3.723 12.07 9.861.539 13.71-11.345 3.787-29.859 3.947-41.718.406-.2-.058-.387-.117-.578-.177-11.827-3.723-12.069-9.861-.538-13.71 11.343-3.782 29.856-3.947 41.715-.407z" transform="translate(-697.686 -763.575)" style="fill:#fff"/>
                    <path data-name="패스 14894" d="M253.341 62.29a73.733 73.733 0 0 1-20.308-2.586c-.2-.059-.391-.118-.584-.179-5.992-1.886-9.306-4.482-9.33-7.308-.023-2.753 3.1-5.316 8.784-7.214 11.476-3.831 29.913-4.011 41.973-.411.2.059.392.119.586.18 5.993 1.886 9.307 4.481 9.331 7.308.024 2.753-3.1 5.315-8.784 7.215-5.966 1.989-13.814 2.995-21.668 2.995zm.255-19.39c-7.813 0-15.625.977-21.422 2.912-5.232 1.746-8.221 4.078-8.2 6.4.021 2.391 3.2 4.761 8.732 6.5.189.059.379.118.572.175 11.717 3.5 30.317 3.318 41.461-.4 5.231-1.746 8.22-4.078 8.2-6.4-.02-2.392-3.2-4.761-8.733-6.5-.19-.06-.38-.118-.574-.176a73.16 73.16 0 0 0-20.036-2.511z"/>
                </g>
            </g>
            <g data-name="그룹 28062">
                <g data-name="그룹 28060">
                    <path data-name="패스 14895" d="m971.8 809.442.006 8.056c0 2.442-2.82 4.889-8.492 6.783-11.345 3.787-29.859 3.946-41.719.405-.2-.058-.387-.117-.578-.177-6.009-1.891-9.027-4.406-9.031-6.927l-.006-8.056c0 2.522 3.022 5.036 9.031 6.928.192.06.384.119.578.177 11.86 3.541 30.374 3.381 41.719-.406 5.673-1.894 8.492-4.341 8.492-6.783z" transform="translate(-692.386 -765.532)" style="fill:#fff"/>
                    <path data-name="패스 14896" d="M249.397 62.151a73.728 73.728 0 0 1-20.308-2.586c-.2-.059-.391-.118-.584-.179-6.012-1.892-9.326-4.5-9.33-7.334l-.006-8.056a.428.428 0 0 1 .427-.427.427.427 0 0 1 .427.427c0 2.4 3.186 4.775 8.732 6.52.189.059.379.118.572.176 11.717 3.5 30.317 3.318 41.461-.4 5.215-1.741 8.2-4.065 8.2-6.376a.428.428 0 0 1 .427-.428.42.42 0 0 1 .427.427l.006 8.052c0 2.743-3.116 5.3-8.784 7.188-5.965 1.987-13.814 2.996-21.667 2.996zm-29.373-15.709v5.612c0 2.4 3.186 4.775 8.732 6.52.189.06.379.118.573.175 11.717 3.5 30.317 3.318 41.461-.4 5.215-1.741 8.2-4.065 8.2-6.376v-5.614c-1.285 1.8-3.993 3.429-7.932 4.744-11.477 3.831-29.915 4.011-41.976.41-.2-.059-.391-.118-.584-.179-4.234-1.337-7.13-3.024-8.474-4.892z"/>
                </g>
                <g data-name="그룹 28061">
                    <path data-name="패스 14897" d="M962.19 789.39c.2.059.388.117.579.178 11.829 3.723 12.07 9.861.54 13.71-11.345 3.787-29.859 3.946-41.719.406-.195-.059-.387-.117-.578-.177-11.827-3.723-12.069-9.861-.538-13.71 11.343-3.787 29.856-3.947 41.716-.407z" transform="translate(-692.386 -752.585)" style="fill:#fff"/>
                    <path data-name="패스 14898" d="M249.386 54.095a73.726 73.726 0 0 1-20.308-2.586c-.2-.059-.391-.118-.584-.179-5.992-1.886-9.305-4.481-9.329-7.308-.024-2.753 3.1-5.315 8.784-7.214 11.476-3.83 29.912-4.01 41.973-.41.2.059.392.118.585.179 5.993 1.886 9.307 4.482 9.331 7.308.024 2.753-3.1 5.315-8.784 7.214-5.962 1.99-13.811 2.995-21.668 2.996zm.255-19.39c-7.813 0-15.626.977-21.422 2.912-5.232 1.746-8.22 4.077-8.2 6.4.02 2.391 3.2 4.761 8.732 6.5.189.059.379.118.572.176 11.717 3.5 30.317 3.318 41.461-.4 5.232-1.746 8.22-4.078 8.2-6.4-.021-2.391-3.2-4.761-8.733-6.5-.19-.06-.38-.118-.574-.176a73.15 73.15 0 0 0-20.032-2.512z"/>
                </g>
            </g>
            <g data-name="그룹 28065">
                <g data-name="그룹 28063">
                    <path data-name="패스 14899" d="m980.749 783.152.006 8.056c0 2.442-2.82 4.889-8.492 6.783-11.345 3.787-29.859 3.946-41.719.406-.2-.059-.387-.117-.578-.178-6.009-1.891-9.028-4.406-9.031-6.927l-.006-8.057c0 2.522 3.022 5.036 9.031 6.927.192.06.384.119.578.177 11.86 3.541 30.374 3.381 41.719-.406 5.672-1.892 8.496-4.34 8.492-6.781z" transform="translate(-697.512 -750.471)" style="fill:#fff"/>
                    <path data-name="패스 14900" d="M253.219 50.921a73.723 73.723 0 0 1-20.308-2.586c-.2-.059-.391-.118-.584-.179-6.013-1.892-9.326-4.5-9.33-7.334l-.006-8.056a.428.428 0 0 1 .427-.428.427.427 0 0 1 .427.427c0 2.4 3.186 4.775 8.732 6.52.189.06.379.118.572.176 11.717 3.5 30.317 3.318 41.461-.4 5.215-1.741 8.2-4.065 8.2-6.377a.427.427 0 0 1 .427-.428.427.427 0 0 1 .427.426l.006 8.052c0 2.743-3.116 5.3-8.784 7.188-5.965 1.994-13.814 2.999-21.667 2.999zm-29.372-15.712v5.611c0 2.4 3.186 4.775 8.732 6.521.189.059.38.118.573.175 11.717 3.5 30.317 3.319 41.461-.4 5.215-1.74 8.2-4.065 8.2-6.376v-5.613c-1.285 1.795-3.993 3.429-7.932 4.744-11.477 3.831-29.916 4.01-41.976.41-.2-.059-.391-.119-.584-.179-4.235-1.335-7.131-3.021-8.475-4.893z"/>
                </g>
                <g data-name="그룹 28064">
                    <path data-name="패스 14901" d="M971.138 763.1c.2.059.388.117.58.178 11.829 3.723 12.07 9.861.54 13.71-11.345 3.787-29.859 3.947-41.719.406a39.501 39.501 0 0 1-.578-.177c-11.828-3.723-12.069-9.861-.538-13.71 11.342-3.788 29.855-3.948 41.715-.407z" transform="translate(-697.512 -737.524)" style="fill:#fff"/>
                    <path data-name="패스 14902" d="M253.212 42.865a73.686 73.686 0 0 1-20.308-2.586c-.2-.059-.391-.118-.584-.179-5.992-1.886-9.305-4.482-9.329-7.309-.024-2.753 3.1-5.315 8.784-7.214 11.476-3.831 29.912-4.011 41.973-.411.2.059.392.119.586.18 5.993 1.886 9.307 4.481 9.331 7.309.024 2.753-3.1 5.315-8.784 7.214-5.967 1.991-13.816 2.996-21.669 2.996zm.255-19.39c-7.813 0-15.625.977-21.422 2.912-5.232 1.746-8.22 4.078-8.2 6.4.021 2.391 3.2 4.76 8.732 6.5.189.06.379.118.572.175 11.717 3.5 30.316 3.318 41.461-.4 5.232-1.747 8.221-4.078 8.2-6.4-.021-2.392-3.2-4.761-8.733-6.5-.19-.06-.38-.118-.574-.176a73.144 73.144 0 0 0-20.036-2.511z"/>
                </g>
            </g>
        </g>
        <path data-name="패스 14903" d="m259.86 27.38-.4 1.735a45.925 45.925 0 0 0-6.756.055c-2.923.246-3.647.729-3.424 1.132a.992.992 0 0 0 .626.343 31.529 31.529 0 0 0 5.468.441 31.416 31.416 0 0 1 6.749.7 3.439 3.439 0 0 1 2.265 1.363c.713 1.281-1.515 2.614-6.532 3.337l.819 1.469-4.414.371-.76-1.367a55.744 55.744 0 0 1-8 .024l.415-1.8a48.384 48.384 0 0 0 7.824.005c2.567-.217 4.147-.68 3.829-1.256a1.267 1.267 0 0 0-.812-.458 23.286 23.286 0 0 0-4.66-.393 34.843 34.843 0 0 1-7.447-.724 3.315 3.315 0 0 1-2.121-1.229c-.705-1.267 1.536-2.494 6.183-3.2l-.76-1.367 4.411-.372.7 1.267a49.819 49.819 0 0 1 6.797-.076z"/>
    </g>
    <g data-name="그룹 28101">
        <g data-name="그룹 28070">
            <g data-name="그룹 28068">
                <path data-name="패스 14904" d="m1160.141 974.98.007 8.186c0 2.481-2.865 4.968-8.629 6.891-11.527 3.848-30.34 4.01-42.391.412-.2-.059-.393-.119-.587-.18-6.106-1.922-9.173-4.477-9.176-7.039l-.006-8.186c0 2.562 3.071 5.117 9.176 7.039.195.061.389.121.588.18 12.05 3.6 30.863 3.436 42.39-.412 5.762-1.923 8.631-4.41 8.628-6.891z" transform="translate(-767.741 -857.947)" style="fill:#fff"/>
                <path data-name="패스 14905" d="M361.897 135.567a74.9 74.9 0 0 1-20.635-2.629c-.2-.059-.4-.12-.594-.182-6.109-1.923-9.476-4.569-9.48-7.452l-.006-8.186a.434.434 0 0 1 .433-.434.434.434 0 0 1 .434.433c0 2.437 3.237 4.852 8.872 6.626.193.06.385.12.582.178 11.906 3.555 30.8 3.372 42.129-.408 5.3-1.769 8.336-4.13 8.333-6.479a.435.435 0 0 1 .434-.435.434.434 0 0 1 .434.434l.006 8.186c0 2.787-3.166 5.381-8.926 7.3-6.06 2.027-14.035 3.048-22.016 3.048zm-29.845-15.965v5.7c0 2.437 3.237 4.851 8.872 6.625.192.061.385.12.582.178 11.905 3.555 30.8 3.372 42.129-.408 5.3-1.769 8.336-4.131 8.332-6.48v-5.7c-1.305 1.824-4.057 3.484-8.06 4.82-11.662 3.893-30.4 4.075-42.653.417-.2-.06-.4-.12-.593-.182-4.301-1.353-7.244-3.068-8.609-4.97z"/>
            </g>
            <g data-name="그룹 28069">
                <path data-name="패스 14906" d="M1150.374 954.969c.2.059.394.119.589.18 12.019 3.783 12.265 10.02.548 13.931-11.527 3.848-30.34 4.01-42.39.412-.2-.059-.393-.119-.588-.18-12.018-3.783-12.263-10.02-.547-13.931 11.527-3.846 30.338-4.009 42.388-.412z" transform="translate(-767.741 -845.156)" style="fill:#fff"/>
                <path data-name="패스 14907" d="M361.89 127.381a74.919 74.919 0 0 1-20.635-2.628c-.2-.06-.4-.12-.593-.182-6.089-1.916-9.455-4.553-9.48-7.426-.024-2.8 3.146-5.4 8.926-7.331 11.661-3.892 30.395-4.075 42.649-.417.2.06.4.12.595.182 6.09 1.917 9.456 4.554 9.481 7.426.024 2.8-3.146 5.4-8.926 7.33-6.061 2.025-14.036 3.046-22.017 3.046zm.26-19.7c-7.939 0-15.877.993-21.767 2.958-5.316 1.775-8.353 4.144-8.333 6.5.021 2.43 3.255 4.837 8.872 6.605.193.06.385.12.582.178 11.906 3.555 30.8 3.372 42.129-.408 5.316-1.774 8.353-4.143 8.333-6.5-.021-2.43-3.255-4.837-8.873-6.605-.193-.061-.387-.12-.583-.179a74.346 74.346 0 0 0-20.36-2.551z"/>
            </g>
        </g>
        <g data-name="그룹 28073">
            <g data-name="그룹 28071">
                <path data-name="패스 14908" d="m395.652 106.746.006 8.186c0 2.481-2.865 4.968-8.629 6.892-11.528 3.848-30.34 4.01-42.391.412-.2-.059-.393-.119-.588-.18-6.106-1.921-9.172-4.477-9.176-7.039l-.006-8.186c0 2.562 3.07 5.117 9.176 7.039.194.061.39.121.587.18 12.051 3.6 30.863 3.436 42.391-.412 5.764-1.925 8.633-4.412 8.63-6.892z"/>
                <path data-name="패스 14909" d="M365.149 125.28a74.907 74.907 0 0 1-20.635-2.628c-.2-.06-.4-.12-.594-.182-6.109-1.923-9.476-4.569-9.48-7.452l-.006-8.186a.434.434 0 0 1 .434-.434.434.434 0 0 1 .434.434c0 2.437 3.237 4.852 8.872 6.625.192.06.385.12.581.178 11.906 3.555 30.8 3.372 42.129-.408 5.3-1.769 8.336-4.13 8.333-6.479a.434.434 0 0 1 .434-.434.434.434 0 0 1 .434.433l.006 8.186c0 2.787-3.166 5.381-8.926 7.3-6.061 2.026-14.036 3.047-22.016 3.047zm-29.845-15.965v5.7c0 2.437 3.238 4.852 8.873 6.625.192.061.385.12.581.178 11.906 3.555 30.8 3.372 42.129-.408 5.3-1.769 8.336-4.131 8.333-6.479v-5.7c-1.305 1.824-4.057 3.484-8.06 4.821-11.662 3.892-30.4 4.075-42.652.416-.2-.06-.4-.12-.594-.182-4.303-1.356-7.245-3.07-8.61-4.971z"/>
            </g>
            <g data-name="그룹 28072">
                <path data-name="패스 14910" d="M1157.866 931.27c.2.059.394.119.589.181 12.02 3.783 12.265 10.02.549 13.931-11.527 3.848-30.34 4.01-42.391.412-.2-.059-.393-.119-.587-.18-12.018-3.783-12.263-10.02-.547-13.931 11.526-3.847 30.337-4.01 42.387-.413z" transform="translate(-771.982 -831.744)" style="fill:#fff"/>
                <path data-name="패스 14911" d="M365.143 117.094a74.909 74.909 0 0 1-20.635-2.628c-.2-.06-.4-.12-.594-.182-6.088-1.917-9.455-4.554-9.48-7.426-.025-2.8 3.146-5.4 8.926-7.331 11.661-3.892 30.395-4.075 42.649-.417l.6.183c6.089 1.916 9.456 4.554 9.481 7.426.024 2.8-3.146 5.4-8.926 7.331-6.066 2.023-14.041 3.044-22.021 3.044zm.26-19.7c-7.939 0-15.878.993-21.768 2.959-5.315 1.774-8.353 4.143-8.333 6.5.021 2.43 3.255 4.837 8.873 6.606.192.06.385.12.581.178 11.906 3.555 30.8 3.372 42.129-.408 5.316-1.774 8.353-4.143 8.333-6.5-.021-2.43-3.256-4.838-8.874-6.606-.193-.061-.386-.12-.583-.179a74.335 74.335 0 0 0-20.359-2.552z"/>
            </g>
        </g>
        <g data-name="그룹 28076">
            <g data-name="그룹 28074">
                <path data-name="패스 14912" d="m1157.03 930.548.006 8.186c0 2.481-2.865 4.968-8.629 6.892-11.528 3.847-30.34 4.01-42.391.412-.2-.059-.393-.119-.588-.18-6.105-1.922-9.172-4.477-9.176-7.039l-.006-8.186c0 2.562 3.07 5.117 9.176 7.039q.291.092.587.181c12.051 3.6 30.863 3.435 42.391-.412 5.764-1.925 8.633-4.412 8.63-6.893z" transform="translate(-765.981 -832.8)" style="fill:#fff"/>
                <path data-name="패스 14913" d="M360.546 116.282a74.9 74.9 0 0 1-20.635-2.628c-.2-.06-.4-.12-.594-.182-6.109-1.923-9.476-4.569-9.48-7.452l-.006-8.186a.434.434 0 0 1 .433-.434.434.434 0 0 1 .434.434c0 2.437 3.237 4.852 8.872 6.625.192.06.385.119.581.178 11.906 3.555 30.805 3.372 42.129-.408 5.3-1.769 8.336-4.131 8.333-6.479a.434.434 0 1 1 .868 0l.006 8.186c0 2.787-3.166 5.381-8.926 7.3-6.06 2.03-14.035 3.046-22.015 3.046zm-29.845-15.965v5.7c0 2.437 3.237 4.852 8.872 6.625.193.061.386.12.582.178 11.906 3.555 30.8 3.372 42.129-.408 5.3-1.769 8.336-4.131 8.333-6.479v-5.7c-1.305 1.824-4.057 3.484-8.06 4.82-11.662 3.893-30.4 4.076-42.652.417-.2-.06-.4-.12-.594-.182-4.303-1.356-7.245-3.069-8.61-4.971z"/>
            </g>
            <g data-name="그룹 28075">
                <path data-name="패스 14914" d="M1147.263 910.537c.2.059.394.119.589.181 12.02 3.783 12.265 10.02.549 13.931-11.527 3.848-30.34 4.01-42.391.412-.2-.059-.393-.119-.587-.181-12.018-3.783-12.263-10.02-.547-13.931 11.524-3.849 30.336-4.009 42.387-.412z" transform="translate(-765.981 -820.009)" style="fill:#fff"/>
                <path data-name="패스 14915" d="M360.54 108.096a74.914 74.914 0 0 1-20.636-2.628c-.2-.06-.4-.12-.594-.182-6.088-1.916-9.455-4.553-9.479-7.426-.024-2.8 3.146-5.4 8.926-7.331 11.661-3.892 30.395-4.075 42.649-.417.2.06.4.12.6.182 6.089 1.916 9.457 4.554 9.482 7.426.024 2.8-3.146 5.4-8.926 7.331-6.067 2.024-14.042 3.045-22.022 3.045zm.259-19.7c-7.939 0-15.878.993-21.768 2.959-5.315 1.775-8.353 4.144-8.332 6.5.021 2.43 3.255 4.837 8.873 6.606.192.06.385.119.581.178 11.906 3.555 30.805 3.372 42.129-.408 5.316-1.774 8.353-4.143 8.333-6.5-.021-2.43-3.256-4.837-8.875-6.605-.193-.061-.385-.12-.583-.179a74.316 74.316 0 0 0-20.358-2.553z"/>
            </g>
        </g>
        <g data-name="그룹 28079">
            <g data-name="그룹 28077">
                <path data-name="패스 14916" d="m1162.786 903.133.006 8.186c0 2.481-2.865 4.968-8.629 6.891-11.528 3.848-30.34 4.01-42.391.412-.2-.059-.393-.119-.588-.18-6.105-1.922-9.173-4.477-9.176-7.039l-.006-8.186c0 2.562 3.071 5.117 9.176 7.039.195.061.39.121.588.18 12.051 3.6 30.863 3.436 42.391-.412 5.763-1.924 8.632-4.41 8.629-6.891z" transform="translate(-769.238 -817.284)" style="fill:#fff"/>
                <path data-name="패스 14917" d="M363.046 104.382a74.9 74.9 0 0 1-20.635-2.629c-.2-.059-.4-.12-.594-.182-6.11-1.923-9.476-4.569-9.48-7.452l-.007-8.186a.434.434 0 0 1 .434-.434.434.434 0 0 1 .434.433c0 2.437 3.238 4.852 8.873 6.626.192.06.385.119.581.178 11.906 3.555 30.8 3.372 42.129-.408 5.3-1.769 8.336-4.13 8.333-6.479a.434.434 0 0 1 .434-.435.434.434 0 0 1 .434.434l.006 8.186c0 2.787-3.166 5.381-8.926 7.3-6.061 2.028-14.034 3.048-22.016 3.048zm-29.845-15.965v5.7c0 2.437 3.238 4.851 8.873 6.625.192.061.385.12.582.178 11.906 3.555 30.8 3.372 42.129-.408 5.3-1.769 8.336-4.131 8.332-6.48v-5.7c-1.3 1.824-4.057 3.484-8.06 4.82-11.662 3.893-30.4 4.076-42.652.417-.2-.06-.4-.12-.594-.182-4.303-1.355-7.245-3.068-8.611-4.969z"/>
            </g>
            <g data-name="그룹 28078">
                <path data-name="패스 14918" d="M1153.019 883.122c.2.059.394.119.589.181 12.02 3.782 12.265 10.02.549 13.931-11.528 3.847-30.34 4.01-42.391.412-.2-.059-.393-.119-.588-.18-12.018-3.783-12.263-10.02-.547-13.931 11.527-3.847 30.338-4.01 42.388-.413z" transform="translate(-769.238 -804.493)" style="fill:#fff"/>
                <path data-name="패스 14919" d="M363.038 96.199a74.918 74.918 0 0 1-20.635-2.628c-.2-.06-.4-.12-.594-.182-6.088-1.916-9.455-4.553-9.48-7.426-.024-2.8 3.146-5.4 8.926-7.331 11.661-3.892 30.395-4.075 42.649-.417.2.06.4.12.6.182 6.089 1.917 9.456 4.554 9.481 7.426.024 2.8-3.146 5.4-8.925 7.33-6.066 2.023-14.041 3.046-22.022 3.046zm.26-19.7c-7.939 0-15.878.993-21.768 2.959-5.316 1.775-8.353 4.144-8.333 6.5.021 2.43 3.255 4.837 8.872 6.606q.288.09.581.178c11.906 3.555 30.8 3.372 42.129-.408 5.316-1.774 8.353-4.143 8.332-6.5-.021-2.43-3.255-4.837-8.874-6.605-.193-.061-.386-.12-.583-.179a74.328 74.328 0 0 0-20.356-2.551z"/>
            </g>
        </g>
        <g data-name="그룹 28082">
            <g data-name="그룹 28080">
                <path data-name="패스 14920" d="m1159.849 879.915.007 8.186c0 2.481-2.865 4.968-8.629 6.892-11.527 3.847-30.34 4.01-42.39.412-.2-.059-.393-.119-.588-.18-6.106-1.922-9.173-4.477-9.176-7.039l-.006-8.186c0 2.562 3.071 5.117 9.176 7.039.194.061.39.121.588.181 12.051 3.6 30.863 3.435 42.391-.412 5.762-1.925 8.631-4.408 8.627-6.893z" transform="translate(-767.576 -804.143)" style="fill:#fff"/>
                <path data-name="패스 14921" d="M361.771 94.306a74.9 74.9 0 0 1-20.635-2.628c-.2-.06-.4-.12-.594-.182-6.11-1.923-9.477-4.57-9.48-7.452l-.006-8.186a.434.434 0 0 1 .433-.435.434.434 0 0 1 .434.434c0 2.437 3.238 4.852 8.873 6.625.192.06.385.119.581.178 11.906 3.555 30.8 3.372 42.129-.408 5.3-1.768 8.336-4.13 8.333-6.479a.435.435 0 0 1 .434-.435.434.434 0 0 1 .434.434l.006 8.186c0 2.787-3.166 5.381-8.926 7.3-6.06 2.027-14.036 3.048-22.016 3.048zm-29.845-15.965v5.7c0 2.437 3.238 4.852 8.872 6.625.192.061.385.12.582.179 11.906 3.555 30.8 3.372 42.129-.408 5.3-1.769 8.336-4.131 8.332-6.48v-5.7c-1.305 1.824-4.057 3.484-8.06 4.82-11.662 3.893-30.4 4.076-42.652.417-.2-.06-.4-.12-.594-.182-4.301-1.356-7.245-3.07-8.609-4.971z"/>
            </g>
            <g data-name="그룹 28081">
                <path data-name="패스 14922" d="M1150.083 859.9c.2.059.394.119.589.181 12.02 3.782 12.265 10.02.549 13.931-11.528 3.848-30.34 4.01-42.391.412a37.3 37.3 0 0 1-.588-.181c-12.018-3.783-12.263-10.02-.547-13.931 11.527-3.842 30.337-4.005 42.388-.412z" transform="translate(-767.576 -791.352)" style="fill:#fff"/>
                <path data-name="패스 14923" d="M361.764 86.12a74.918 74.918 0 0 1-20.635-2.628c-.2-.06-.4-.12-.594-.182-6.089-1.916-9.455-4.553-9.48-7.426-.024-2.8 3.145-5.4 8.926-7.331 11.661-3.892 30.394-4.075 42.649-.417.2.06.4.12.6.182 6.089 1.917 9.457 4.554 9.481 7.426.024 2.8-3.145 5.4-8.926 7.33-6.065 2.025-14.041 3.046-22.021 3.046zm.26-19.7c-7.939 0-15.877.993-21.767 2.959-5.316 1.775-8.353 4.144-8.333 6.5.021 2.43 3.255 4.837 8.873 6.605.192.06.385.119.581.178 11.906 3.555 30.8 3.372 42.129-.408 5.316-1.774 8.353-4.143 8.333-6.5-.021-2.43-3.255-4.838-8.874-6.606-.193-.061-.386-.12-.583-.179a74.325 74.325 0 0 0-20.359-2.551z"/>
            </g>
        </g>
        <g data-name="그룹 28085">
            <g data-name="그룹 28083">
                <path data-name="패스 14924" d="m1154.314 853.715.006 8.186c0 2.481-2.865 4.968-8.629 6.892-11.528 3.848-30.34 4.01-42.391.412q-.3-.088-.587-.18c-6.106-1.922-9.173-4.477-9.176-7.039l-.006-8.186c0 2.562 3.071 5.117 9.176 7.039.195.061.389.121.588.18 12.05 3.6 30.863 3.435 42.39-.412 5.763-1.925 8.632-4.407 8.629-6.892z" transform="translate(-764.443 -789.316)" style="fill:#fff"/>
                <path data-name="패스 14925" d="M359.368 82.933a74.914 74.914 0 0 1-20.635-2.628c-.2-.06-.4-.12-.594-.182-6.109-1.923-9.476-4.57-9.48-7.452l-.007-8.186a.435.435 0 0 1 .434-.435.434.434 0 0 1 .434.434c0 2.437 3.237 4.851 8.873 6.625q.288.091.582.178c11.906 3.555 30.8 3.372 42.129-.408 5.3-1.769 8.336-4.13 8.333-6.479a.434.434 0 0 1 .434-.434.433.433 0 0 1 .434.433l.007 8.181c0 2.787-3.166 5.381-8.926 7.3-6.063 2.032-14.037 3.052-22.018 3.053zm-29.845-15.965v5.7c0 2.437 3.237 4.852 8.872 6.625.192.061.386.12.582.178 11.906 3.555 30.8 3.372 42.129-.408 5.3-1.769 8.335-4.131 8.333-6.48v-5.7c-1.305 1.824-4.057 3.484-8.059 4.821-11.662 3.893-30.4 4.076-42.652.417q-.3-.09-.594-.182c-4.303-1.357-7.246-3.07-8.611-4.971z"/>
            </g>
            <g data-name="그룹 28084">
                <path data-name="패스 14926" d="M1144.547 833.7c.2.06.394.119.589.181 12.019 3.783 12.265 10.02.548 13.931-11.527 3.847-30.34 4.01-42.39.412-.2-.059-.393-.119-.588-.18-12.018-3.783-12.263-10.02-.547-13.931 11.526-3.844 30.341-4.007 42.388-.413z" transform="translate(-764.443 -776.524)" style="fill:#fff"/>
                <path data-name="패스 14927" d="M359.362 74.747a74.91 74.91 0 0 1-20.635-2.628c-.2-.06-.4-.12-.594-.182-6.089-1.916-9.455-4.553-9.48-7.426-.024-2.8 3.146-5.4 8.926-7.331 11.661-3.892 30.394-4.075 42.65-.417.2.06.4.12.595.182 6.089 1.917 9.456 4.554 9.481 7.426.024 2.8-3.146 5.4-8.926 7.33-6.062 2.025-14.037 3.046-22.017 3.046zm.26-19.7c-7.939 0-15.877.993-21.767 2.958-5.316 1.775-8.353 4.144-8.333 6.5.021 2.43 3.255 4.837 8.873 6.605.192.06.385.12.582.178 11.905 3.555 30.8 3.372 42.129-.408 5.316-1.774 8.353-4.143 8.332-6.5-.021-2.43-3.256-4.838-8.874-6.606a44.24 44.24 0 0 0-.582-.179 74.332 74.332 0 0 0-20.359-2.55z"/>
            </g>
        </g>
        <g data-name="그룹 28088">
            <g data-name="그룹 28086">
                <path data-name="패스 14928" d="m1160.185 828.628.006 8.186c0 2.481-2.865 4.968-8.629 6.892-11.528 3.848-30.34 4.01-42.391.412-.2-.059-.393-.119-.588-.18-6.106-1.922-9.173-4.477-9.176-7.039l-.007-8.186c0 2.562 3.071 5.117 9.176 7.039.194.061.39.121.588.18 12.051 3.6 30.863 3.435 42.391-.412 5.764-1.92 8.633-4.411 8.63-6.892z" transform="translate(-767.766 -775.117)" style="fill:#ff754b"/>
                <path data-name="패스 14929" d="M361.916 72.049a74.908 74.908 0 0 1-20.635-2.628c-.2-.06-.4-.12-.594-.182-6.109-1.923-9.476-4.569-9.48-7.452l-.006-8.186a.434.434 0 0 1 .434-.434.434.434 0 0 1 .434.434c0 2.437 3.237 4.851 8.873 6.625.192.06.385.12.581.178 11.906 3.555 30.8 3.372 42.129-.408 5.3-1.769 8.336-4.13 8.333-6.479a.434.434 0 0 1 .434-.435.434.434 0 0 1 .434.433l.006 8.186c0 2.787-3.166 5.381-8.926 7.3-6.061 2.023-14.033 3.048-22.017 3.048zm-29.845-15.965v5.7c0 2.437 3.237 4.851 8.872 6.625.192.06.385.119.582.178 11.905 3.555 30.8 3.372 42.129-.408 5.3-1.769 8.336-4.13 8.333-6.479V56c-1.3 1.824-4.057 3.484-8.059 4.821-11.662 3.892-30.4 4.075-42.653.416-.2-.06-.4-.12-.594-.182-4.302-1.36-7.244-3.074-8.61-4.975z"/>
            </g>
            <g data-name="그룹 28087">
                <path data-name="패스 14930" d="M1150.418 808.616c.2.059.394.119.589.181 12.02 3.783 12.265 10.02.549 13.931-11.528 3.848-30.34 4.01-42.391.412-.2-.06-.393-.119-.588-.18-12.018-3.783-12.263-10.02-.547-13.931 11.527-3.847 30.337-4.01 42.388-.413z" transform="translate(-767.766 -762.325)" style="fill:#fff"/>
                <path data-name="패스 14931" d="M361.909 63.859a74.912 74.912 0 0 1-20.635-2.628c-.2-.06-.4-.12-.594-.182-6.088-1.917-9.455-4.554-9.479-7.426-.024-2.8 3.146-5.4 8.926-7.33 11.661-3.892 30.395-4.075 42.649-.417l.6.183c6.089 1.916 9.456 4.553 9.481 7.426.024 2.8-3.146 5.4-8.926 7.331-6.066 2.022-14.041 3.043-22.022 3.043zm.26-19.7c-7.939 0-15.877.993-21.767 2.959-5.316 1.774-8.353 4.144-8.332 6.5.021 2.43 3.255 4.837 8.873 6.605.192.06.385.12.581.178 11.906 3.555 30.8 3.372 42.129-.408 5.316-1.774 8.353-4.143 8.333-6.5-.021-2.43-3.255-4.838-8.874-6.606-.193-.061-.386-.12-.583-.179a74.336 74.336 0 0 0-20.36-2.55z"/>
            </g>
        </g>
        <g data-name="그룹 28091">
            <g data-name="그룹 28089">
                <path data-name="패스 14932" d="m1150.935 809.442.007 8.186c0 2.481-2.866 4.968-8.63 6.892-11.528 3.848-30.34 4.01-42.391.412-.2-.059-.393-.119-.588-.18-6.105-1.922-9.172-4.477-9.176-7.039l-.006-8.186c0 2.562 3.07 5.117 9.176 7.039.194.061.389.121.587.18 12.051 3.6 30.863 3.435 42.391-.412 5.764-1.924 8.633-4.411 8.63-6.892z" transform="translate(-762.531 -764.258)" style="fill:#fff"/>
                <path data-name="패스 14933" d="M357.901 63.719a74.911 74.911 0 0 1-20.635-2.628c-.2-.06-.4-.12-.594-.182-6.109-1.923-9.476-4.569-9.48-7.452l-.006-8.186a.434.434 0 0 1 .434-.434.434.434 0 0 1 .434.434c0 2.437 3.238 4.852 8.872 6.625.192.06.385.12.582.178 11.906 3.555 30.8 3.372 42.129-.408 5.3-1.769 8.336-4.13 8.333-6.479a.434.434 0 0 1 .433-.435.427.427 0 0 1 .434.434l.006 8.182c0 2.787-3.165 5.381-8.925 7.3-6.062 2.03-14.037 3.051-22.017 3.051zm-29.845-15.965v5.7c0 2.437 3.237 4.852 8.872 6.625.192.06.385.119.581.178 11.906 3.555 30.8 3.372 42.129-.408 5.3-1.769 8.336-4.131 8.333-6.479v-5.7c-1.305 1.824-4.057 3.484-8.059 4.82-11.662 3.893-30.4 4.076-42.653.417-.2-.06-.4-.12-.594-.182-4.302-1.356-7.244-3.07-8.609-4.971z"/>
            </g>
            <g data-name="그룹 28090">
                <path data-name="패스 14934" d="M1141.167 789.431c.2.059.394.12.59.181 12.019 3.783 12.264 10.02.548 13.931-11.527 3.848-30.34 4.01-42.391.412-.2-.06-.393-.12-.587-.18-12.018-3.783-12.263-10.02-.547-13.931 11.526-3.844 30.337-4.01 42.387-.413z" transform="translate(-762.531 -751.467)" style="fill:#fff"/>
                <path data-name="패스 14935" d="M357.895 55.532a74.92 74.92 0 0 1-20.636-2.628c-.2-.06-.4-.12-.594-.182-6.088-1.916-9.455-4.554-9.48-7.426-.024-2.8 3.146-5.4 8.926-7.331 11.661-3.892 30.394-4.075 42.649-.417.2.06.4.12.595.182 6.089 1.917 9.456 4.554 9.482 7.426.024 2.8-3.146 5.4-8.926 7.33-6.061 2.025-14.036 3.046-22.016 3.046zm.259-19.7c-7.939 0-15.878.993-21.767 2.959-5.316 1.774-8.353 4.143-8.333 6.5.021 2.43 3.255 4.837 8.872 6.605.192.06.385.12.582.178 11.906 3.555 30.8 3.371 42.129-.408 5.316-1.774 8.353-4.143 8.333-6.5-.021-2.43-3.256-4.838-8.874-6.606-.193-.061-.386-.12-.583-.179a74.326 74.326 0 0 0-20.359-2.551z"/>
            </g>
        </g>
        <g data-name="그룹 28094">
            <g data-name="그룹 28092">
                <path data-name="패스 14936" d="m1159.883 783.152.006 8.186c0 2.481-2.866 4.968-8.629 6.892-11.528 3.847-30.34 4.01-42.391.412a37.3 37.3 0 0 1-.588-.181c-6.105-1.921-9.172-4.477-9.176-7.039l-.006-8.186c0 2.562 3.071 5.117 9.176 7.039.194.061.389.121.587.18 12.051 3.6 30.864 3.435 42.391-.412 5.764-1.924 8.633-4.411 8.63-6.891z" transform="translate(-767.595 -749.379)" style="fill:#fff"/>
                <path data-name="패스 14937" d="M361.785 52.307a74.916 74.916 0 0 1-20.635-2.628c-.2-.06-.4-.12-.594-.182-6.109-1.923-9.476-4.57-9.48-7.452l-.006-8.186a.435.435 0 0 1 .433-.435.434.434 0 0 1 .434.433c0 2.437 3.237 4.852 8.872 6.625.192.061.385.12.582.179 11.906 3.554 30.8 3.371 42.129-.408 5.3-1.769 8.336-4.131 8.333-6.479a.434.434 0 0 1 .433-.435.434.434 0 0 1 .434.433l.006 8.182c0 2.787-3.166 5.381-8.925 7.3-6.061 2.033-14.036 3.053-22.016 3.053zM331.94 36.342v5.7c0 2.437 3.237 4.852 8.872 6.625.193.06.385.119.581.178 11.906 3.555 30.8 3.372 42.129-.408 5.3-1.769 8.336-4.131 8.332-6.479v-5.7c-1.305 1.824-4.057 3.484-8.059 4.82-11.662 3.892-30.4 4.075-42.653.416-.2-.06-.4-.12-.594-.182-4.3-1.355-7.243-3.068-8.608-4.97z"/>
            </g>
            <g data-name="그룹 28093">
                <path data-name="패스 14938" d="M1150.116 763.14c.2.059.394.119.589.181 12.019 3.783 12.264 10.02.548 13.931-11.527 3.848-30.34 4.01-42.391.412-.2-.059-.393-.119-.587-.18-12.018-3.783-12.263-10.02-.547-13.931 11.526-3.847 30.337-4.01 42.388-.413z" transform="translate(-767.595 -736.587)" style="fill:#fff"/>
                <path data-name="패스 14939" d="M361.779 44.121a74.882 74.882 0 0 1-20.636-2.628c-.2-.06-.4-.12-.594-.182-6.088-1.917-9.455-4.554-9.48-7.426-.024-2.8 3.146-5.4 8.926-7.33 11.661-3.892 30.394-4.076 42.649-.417l.6.183c6.089 1.916 9.457 4.553 9.481 7.426.024 2.8-3.146 5.4-8.926 7.33-6.065 2.028-14.04 3.044-22.02 3.044zm.259-19.7c-7.939 0-15.878.993-21.768 2.959-5.316 1.774-8.353 4.143-8.332 6.5.021 2.43 3.255 4.837 8.872 6.605.192.061.385.12.582.178 11.906 3.555 30.8 3.372 42.129-.408 5.316-1.775 8.352-4.144 8.333-6.5-.022-2.43-3.256-4.838-8.874-6.606-.193-.061-.386-.12-.583-.178a74.319 74.319 0 0 0-20.359-2.552z"/>
            </g>
        </g>
        <g data-name="그룹 28097">
            <g data-name="그룹 28095">
                <path data-name="패스 14940" d="m1151.717 755.354.006 8.186c0 2.481-2.866 4.968-8.629 6.892-11.528 3.848-30.34 4.01-42.391.412-.2-.059-.393-.119-.588-.18-6.106-1.922-9.173-4.477-9.176-7.039l-.006-8.186c0 2.562 3.071 5.117 9.176 7.039q.292.092.587.18c12.051 3.6 30.863 3.435 42.391-.412 5.764-1.924 8.634-4.412 8.63-6.892z" transform="translate(-762.973 -733.646)" style="fill:#fff"/>
                <path data-name="패스 14941" d="M358.241 40.242a74.916 74.916 0 0 1-20.635-2.628q-.3-.09-.593-.182c-6.109-1.923-9.476-4.569-9.48-7.452l-.006-8.186a.434.434 0 0 1 .433-.434.434.434 0 0 1 .434.433c0 2.437 3.237 4.852 8.873 6.625.192.06.385.12.581.178 11.906 3.555 30.8 3.372 42.129-.408 5.3-1.769 8.336-4.131 8.333-6.48a.434.434 0 0 1 .434-.434.434.434 0 0 1 .434.433l.006 8.186c0 2.787-3.166 5.381-8.926 7.3-6.065 2.027-14.036 3.049-22.017 3.049zm-29.848-15.965v5.7c0 2.437 3.238 4.852 8.872 6.625.192.06.385.119.582.178 11.906 3.555 30.8 3.372 42.129-.408 5.3-1.769 8.336-4.13 8.332-6.479v-5.7c-1.305 1.824-4.057 3.484-8.06 4.821-11.662 3.893-30.4 4.075-42.652.416-.2-.06-.4-.12-.594-.182-4.298-1.356-7.24-3.07-8.609-4.971z"/>
            </g>
            <g data-name="그룹 28096">
                <path data-name="패스 14942" d="M1141.95 735.342c.2.06.394.119.589.181 12.02 3.783 12.265 10.02.549 13.931-11.528 3.848-30.34 4.01-42.391.412-.2-.059-.393-.119-.588-.18-12.018-3.783-12.263-10.02-.547-13.931 11.527-3.847 30.338-4.01 42.388-.413z" transform="translate(-762.973 -720.854)" style="fill:#fff"/>
                <path data-name="패스 14943" d="M358.234 32.056a74.894 74.894 0 0 1-20.635-2.628c-.2-.06-.4-.12-.594-.182-6.088-1.917-9.455-4.554-9.48-7.426-.024-2.8 3.146-5.4 8.926-7.33 11.661-3.892 30.394-4.075 42.649-.417.2.06.4.121.595.183 6.089 1.916 9.457 4.553 9.481 7.426.024 2.8-3.145 5.4-8.925 7.331-6.059 2.024-14.036 3.043-22.017 3.043zm.26-19.7c-7.939 0-15.877.992-21.767 2.959-5.316 1.774-8.353 4.144-8.333 6.5.021 2.43 3.255 4.837 8.872 6.605.192.06.385.12.581.178 11.906 3.555 30.8 3.372 42.129-.408 5.316-1.775 8.353-4.144 8.333-6.5-.021-2.43-3.255-4.838-8.874-6.606-.193-.061-.386-.12-.583-.178a74.328 74.328 0 0 0-20.36-2.552z"/>
            </g>
        </g>
        <g data-name="그룹 28100">
            <g data-name="그룹 28098">
                <path data-name="패스 14944" d="m391.009 10.263.007 8.186c0 2.48-2.866 4.967-8.629 6.891-11.528 3.848-30.34 4.01-42.391.412-.2-.059-.393-.119-.588-.18-6.106-1.922-9.173-4.477-9.176-7.039l-.006-8.186c0 2.562 3.071 5.117 9.176 7.038q.292.092.588.18c12.051 3.6 30.863 3.436 42.391-.412 5.762-1.922 8.631-4.409 8.628-6.89z"/>
                <path data-name="패스 14945" d="M360.506 28.797a74.882 74.882 0 0 1-20.635-2.628q-.3-.09-.593-.182c-6.11-1.923-9.476-4.57-9.48-7.452l-.006-8.186a.434.434 0 0 1 .433-.435.434.434 0 0 1 .434.433c0 2.437 3.237 4.852 8.873 6.625.192.061.386.12.582.178 11.905 3.555 30.8 3.372 42.129-.408 5.3-1.769 8.336-4.131 8.333-6.48a.434.434 0 0 1 .434-.434.435.435 0 0 1 .434.433l.006 8.186c0 2.787-3.166 5.381-8.926 7.3-6.062 2.029-14.038 3.05-22.018 3.05zm-29.845-15.965v5.7c0 2.436 3.238 4.851 8.873 6.625.192.06.385.12.582.178 11.906 3.555 30.8 3.372 42.129-.408 5.3-1.769 8.336-4.13 8.332-6.479v-5.7c-1.305 1.824-4.057 3.484-8.059 4.82-11.662 3.893-30.4 4.076-42.653.417-.2-.06-.4-.121-.594-.182-4.302-1.358-7.245-3.07-8.61-4.971z"/>
            </g>
            <g data-name="그룹 28099">
                <path data-name="패스 14946" d="M1147.169 708.973c.2.059.394.119.589.181 12.02 3.783 12.265 10.02.549 13.93-11.528 3.848-30.34 4.01-42.391.412-.2-.059-.393-.119-.588-.18-12.018-3.783-12.263-10.019-.547-13.931 11.527-3.846 30.337-4.01 42.388-.412z" transform="translate(-765.927 -705.93)" style="fill:#fff"/>
                <path data-name="패스 14947" d="M360.499 20.611a74.906 74.906 0 0 1-20.635-2.628c-.2-.06-.4-.121-.594-.182-6.088-1.916-9.455-4.553-9.48-7.426-.024-2.8 3.146-5.4 8.926-7.331 11.661-3.892 30.394-4.075 42.649-.417.2.06.4.12.595.182 6.089 1.916 9.457 4.554 9.481 7.426.024 2.8-3.146 5.4-8.925 7.33-6.061 2.025-14.037 3.046-22.017 3.046zm.26-19.7c-7.939 0-15.877.993-21.767 2.959-5.316 1.774-8.353 4.144-8.333 6.5.021 2.43 3.255 4.837 8.872 6.605.193.061.386.12.582.178 11.905 3.555 30.8 3.372 42.129-.408 5.316-1.775 8.353-4.144 8.332-6.5-.021-2.43-3.255-4.837-8.874-6.605-.193-.061-.387-.12-.583-.179A74.327 74.327 0 0 0 360.759.909z"/>
            </g>
            <path data-name="패스 14948" d="m367.503 5.109-.407 1.763a46.672 46.672 0 0 0-6.865.057c-2.97.25-3.705.74-3.479 1.15a1.011 1.011 0 0 0 .637.348 32.038 32.038 0 0 0 5.556.448 31.864 31.864 0 0 1 6.858.707 3.494 3.494 0 0 1 2.3 1.385c.724 1.3-1.539 2.656-6.637 3.391l.832 1.492-4.484.377-.773-1.389a56.628 56.628 0 0 1-8.129.025l.422-1.827a49.158 49.158 0 0 0 7.95.006c2.609-.22 4.214-.691 3.891-1.276a1.286 1.286 0 0 0-.824-.465 23.6 23.6 0 0 0-4.735-.4 35.442 35.442 0 0 1-7.566-.736 3.369 3.369 0 0 1-2.155-1.249c-.716-1.286 1.56-2.534 6.283-3.253l-.773-1.389 4.482-.378.713 1.288a50.706 50.706 0 0 1 6.903-.075z"/>
        </g>
    </g>
</svg>
