<svg xmlns="http://www.w3.org/2000/svg" width="206.475" height="154.096" viewBox="0 0 206.475 154.096">
    <defs>
        <clipPath id="ye7xrvwi1a">
            <path data-name="사각형 11774" style="fill:none" d="M0 0h206.475v154.096H0z"/>
        </clipPath>
    </defs>
    <g data-name="그룹 29824" style="clip-path:url(#ye7xrvwi1a)">
        <path data-name="패스 15593" d="M95.169 281.837c-8.327 3.934-23.169 19.1-20.093 50.9.219 4.044 1.312 14.1 17.379 14.756h26.56c7.87 0 16.723-2.3 17.379-14.756 1.62-16.2-2.973-42.4-20.047-50.861a2.9 2.9 0 0 0-1.286-.293h-18.7a2.771 2.771 0 0 0-1.193.255m9.333 23.745v-2.03a1.073 1.073 0 1 1 2.147 0v2.015a14.371 14.371 0 0 1 4.844 1.4 1.073 1.073 0 1 1-.964 1.918 11.816 11.816 0 0 0-4.925-1.221h-.049a4.59 4.59 0 0 0-2.58.674 3.32 3.32 0 0 0-1.341 2.38 2.682 2.682 0 0 0 .3 1.823 4.69 4.69 0 0 0 1.438 1.458 15.6 15.6 0 0 0 2.25 1.249c.3.14.614.285.932.43.509.232 1.021.466 1.46.686a6.225 6.225 0 0 1 3.694 4.6 4.978 4.978 0 0 1-2.008 4.644 8.3 8.3 0 0 1-3.051 1.434v2.081a1.073 1.073 0 1 1-2.147 0v-1.818a10.443 10.443 0 0 1-4.374-.922 1.073 1.073 0 0 1 .892-1.953 8.214 8.214 0 0 0 4.4.661h.015a6.311 6.311 0 0 0 2.971-1.2 2.832 2.832 0 0 0 1.173-2.646 4.11 4.11 0 0 0-2.531-2.971c-.416-.209-.849-.406-1.319-.62-.324-.147-.664-.3-1.028-.474a17.678 17.678 0 0 1-2.562-1.43 6.8 6.8 0 0 1-2.076-2.162 4.824 4.824 0 0 1-.55-3.218 5.45 5.45 0 0 1 2.245-3.812 6.143 6.143 0 0 1 2.742-.985" transform="translate(-51.767 -195.232)" style="fill:#ff754b;fill-rule:evenodd"/>
        <path data-name="패스 15594" d="M67.249 153.026H40.657c-7.145-.292-12.264-2.45-15.216-6.416a16.428 16.428 0 0 1-2.9-9.049c-3.059-31.667 11.464-47.367 20.53-51.651a3.532 3.532 0 0 1 1.52-.327h18.7a3.679 3.679 0 0 1 1.626.372c7.833 3.881 13.858 11.828 17.424 22.98a74.619 74.619 0 0 1 3.047 28.626c-.312 5.856-2.442 10.107-6.331 12.635-2.929 1.9-6.793 2.829-11.813 2.829m-26.545-1.533h26.545c10.683 0 16.117-4.589 16.614-14.03v-.036a72.986 72.986 0 0 0-2.98-28.024c-2.4-7.5-7.23-17.409-16.644-22.074a2.143 2.143 0 0 0-.946-.213h-18.7a2.01 2.01 0 0 0-.865.181c-1.945.919-8.7 4.692-13.972 14.667-5.114 9.671-7.026 21.6-5.685 35.465v.033c.178 3.309.722 13.375 16.629 14.031m13.1-15.757a1.842 1.842 0 0 1-1.828-1.834v-1.072a11.273 11.273 0 0 1-3.926-.971 1.844 1.844 0 0 1 1.526-3.357 7.43 7.43 0 0 0 3.98.6h.038a5.505 5.505 0 0 0 2.589-1.046 2.081 2.081 0 0 0 .874-1.932c-.071-.53-.44-1.546-2.115-2.388-.4-.2-.832-.4-1.287-.605-.331-.15-.675-.307-1.043-.481a18.5 18.5 0 0 1-2.674-1.495 7.466 7.466 0 0 1-2.3-2.412 5.578 5.578 0 0 1-.641-3.717 6.251 6.251 0 0 1 2.569-4.323 6.6 6.6 0 0 1 2.41-1v-1.381a1.84 1.84 0 1 1 3.68 0v1.337a15.117 15.117 0 0 1 4.422 1.39 1.84 1.84 0 1 1-1.653 3.288 11.129 11.129 0 0 0-4.574-1.139h-.051a3.884 3.884 0 0 0-2.151.539 2.617 2.617 0 0 0-1.018 1.868 1.939 1.939 0 0 0 .208 1.324 3.987 3.987 0 0 0 1.211 1.211 14.631 14.631 0 0 0 2.138 1.184c.294.139.607.282.922.425.509.232 1.033.471 1.488.7a6.951 6.951 0 0 1 4.11 5.188 5.717 5.717 0 0 1-2.306 5.358 8.99 8.99 0 0 1-2.746 1.4v1.5a1.842 1.842 0 0 1-1.84 1.84"/>
        <path data-name="패스 15595" d="M64.599 86.022H42.353a2 2 0 0 1-1.993-1.993V79.49a2 2 0 0 1 1.993-1.993h22.246a2 2 0 0 1 1.993 1.993v4.539a2 2 0 0 1-1.993 1.993M42.353 79.03a.461.461 0 0 0-.46.46v4.539a.461.461 0 0 0 .46.46h22.246a.46.46 0 0 0 .46-.46V79.49a.46.46 0 0 0-.46-.46z"/>
        <path data-name="패스 15596" d="M84.846 34.213h35.363a1.993 1.993 0 0 1 1.993 1.993v3.883a1.993 1.993 0 0 1-1.993 1.993H84.846a1.993 1.993 0 0 1-1.993-1.993v-3.883a1.993 1.993 0 0 1 1.993-1.993"/>
        <path data-name="패스 15597" d="M43.969 75.965a.767.767 0 0 1-.673-.4l-7.214-13.116a.767.767 0 1 1 1.343-.739l7.211 13.122a.767.767 0 0 1-.671 1.136"/>
        <path data-name="패스 15598" d="M63.643 75.968a.767.767 0 0 1-.682-1.116l6.882-13.447a.767.767 0 0 1 1.365.7l-6.886 13.444a.767.767 0 0 1-.683.417"/>
        <path data-name="패스 15599" d="M39.072 62.775a14.6 14.6 0 0 1-2.8-.267.767.767 0 0 1 .3-1.5c2.429.486 6.579.366 8.056-1.955a4.7 4.7 0 0 1 3.137-2.33 4.253 4.253 0 0 1 3.227.825l.039.032 2.951 2.623a.767.767 0 1 1-1.018 1.146l-2.931-2.605a2.711 2.711 0 0 0-2.006-.511 3.255 3.255 0 0 0-2.1 1.643c-1.436 2.257-4.344 2.9-6.854 2.9"/>
        <path data-name="패스 15600" d="M67.882 62.512c-2.511 0-5.418-.646-6.854-2.9a3.253 3.253 0 0 0-2.1-1.643 2.712 2.712 0 0 0-1.993.5l-2.918 2.854a.768.768 0 1 1-1.072-1.1l3.017-2.944a4.254 4.254 0 0 1 3.227-.825 4.705 4.705 0 0 1 3.137 2.328c1.477 2.321 5.628 2.441 8.056 1.955a.767.767 0 1 1 .3 1.5 14.593 14.593 0 0 1-2.8.267"/>
        <path data-name="패스 15601" d="M85.285 33.012a.767.767 0 0 1-.681-.412L72.471 9.318a.767.767 0 1 1 1.36-.708l12.133 23.281a.767.767 0 0 1-.679 1.121"/>
        <path data-name="패스 15602" d="M120.37 33.009a.767.767 0 0 1-.685-1.11l11.8-23.609a.767.767 0 1 1 1.371.686l-11.8 23.609a.767.767 0 0 1-.686.424"/>
        <path data-name="패스 15603" d="M77.62 10.053a24.377 24.377 0 0 1-4.618-.428.767.767 0 0 1 .3-1.5c3.749.746 11.609.951 14.528-3.614A7.609 7.609 0 0 1 92.876.748a6.8 6.8 0 0 1 5.149 1.311l.039.032 5.108 4.518a.767.767 0 1 1-1.016 1.148l-5.088-4.5a5.228 5.228 0 0 0-3.93-1 6.159 6.159 0 0 0-4.016 3.078c-2.363 3.695-7.331 4.72-11.5 4.72"/>
        <path data-name="패스 15604" d="M127.706 9.399c-4.171 0-9.138-1.025-11.5-4.72a6.158 6.158 0 0 0-4.017-3.08 5.224 5.224 0 0 0-3.916.987l-5.075 4.941a.767.767 0 1 1-1.07-1.1l5.173-5.028a6.805 6.805 0 0 1 5.15-1.31 7.61 7.61 0 0 1 5.046 3.763c2.919 4.565 10.779 4.36 14.528 3.614a.767.767 0 0 1 .3 1.5 24.389 24.389 0 0 1-4.618.428"/>
        <path data-name="패스 15605" d="M7.356 152.429a3.053 3.053 0 0 1-1.458-.372l-4.298-2.33a3.071 3.071 0 0 1-1.233-4.158L13.8 120.815a3.066 3.066 0 0 1 4.158-1.233l4.294 2.329a3.066 3.066 0 0 1 1.233 4.158l-13.429 24.754a3.075 3.075 0 0 1-2.7 1.605M1.719 146.3a1.535 1.535 0 0 0 .616 2.079l4.294 2.329a1.534 1.534 0 0 0 2.079-.617l13.429-24.754a1.533 1.533 0 0 0-.616-2.079l-4.294-2.329a1.534 1.534 0 0 0-2.079.616z"/>
        <path data-name="패스 15606" d="M164.716 131.798h-28.162a3.07 3.07 0 0 1-3.067-3.067v-4.885a3.07 3.07 0 0 1 3.067-3.067h28.162a3.07 3.07 0 0 1 3.067 3.067v4.885a3.07 3.07 0 0 1-3.067 3.067m-28.163-9.485a1.535 1.535 0 0 0-1.533 1.533v4.885a1.535 1.535 0 0 0 1.533 1.533h28.163a1.535 1.535 0 0 0 1.533-1.533v-4.885a1.535 1.535 0 0 0-1.533-1.533z"/>
        <path data-name="패스 15607" d="M169.307 142.947h-28.162a3.07 3.07 0 0 1-3.067-3.067v-4.884a3.07 3.07 0 0 1 3.067-3.067h28.162a3.07 3.07 0 0 1 3.067 3.067v4.885a3.07 3.07 0 0 1-3.067 3.067m-28.162-9.485a1.535 1.535 0 0 0-1.533 1.533v4.885a1.535 1.535 0 0 0 1.533 1.533h28.162a1.535 1.535 0 0 0 1.533-1.533v-4.885a1.535 1.535 0 0 0-1.533-1.533z"/>
        <path data-name="패스 15608" d="M164.716 154.096h-28.162a3.07 3.07 0 0 1-3.067-3.067v-4.885a3.07 3.07 0 0 1 3.067-3.067h28.162a3.07 3.07 0 0 1 3.067 3.067v4.885a3.07 3.07 0 0 1-3.067 3.067m-28.162-9.486a1.535 1.535 0 0 0-1.533 1.533v4.885a1.535 1.535 0 0 0 1.533 1.533h28.162a1.535 1.535 0 0 0 1.533-1.533v-4.885a1.535 1.535 0 0 0-1.533-1.533z"/>
        <path data-name="패스 15609" d="M198.162 154.096H170a3.07 3.07 0 0 1-3.067-3.067v-4.885a3.07 3.07 0 0 1 3.067-3.067h28.162a3.07 3.07 0 0 1 3.067 3.067v4.885a3.07 3.07 0 0 1-3.067 3.067M170 144.61a1.535 1.535 0 0 0-1.533 1.533v4.885a1.535 1.535 0 0 0 1.533 1.533h28.162a1.535 1.535 0 0 0 1.533-1.533v-4.885a1.535 1.535 0 0 0-1.533-1.533z"/>
        <path data-name="패스 15610" d="M203.412 144.259h-28.165a3.07 3.07 0 0 1-3.067-3.067v-4.885a3.07 3.07 0 0 1 3.067-3.067h28.165a3.07 3.07 0 0 1 3.067 3.067v4.885a3.07 3.07 0 0 1-3.067 3.067m-28.163-9.485a1.535 1.535 0 0 0-1.537 1.534v4.885a1.535 1.535 0 0 0 1.533 1.533h28.167a1.535 1.535 0 0 0 1.533-1.533v-4.885a1.535 1.535 0 0 0-1.533-1.533z"/>
        <path data-name="패스 15611" d="M198.818 133.766h-28.162a3.07 3.07 0 0 1-3.067-3.067v-4.885a3.07 3.07 0 0 1 3.067-3.067h28.162a3.07 3.07 0 0 1 3.067 3.067v4.885a3.07 3.07 0 0 1-3.067 3.067m-28.162-9.485a1.535 1.535 0 0 0-1.533 1.533v4.885a1.535 1.535 0 0 0 1.533 1.533h28.162a1.535 1.535 0 0 0 1.533-1.533v-4.885a1.535 1.535 0 0 0-1.533-1.533z"/>
        <path data-name="패스 15612" d="M192.916 122.617h-28.162a3.07 3.07 0 0 1-3.067-3.067v-4.885a3.07 3.07 0 0 1 3.067-3.067h28.163a3.07 3.07 0 0 1 3.067 3.067v4.885a3.07 3.07 0 0 1-3.067 3.067m-28.163-9.485a1.535 1.535 0 0 0-1.533 1.533v4.885a1.535 1.535 0 0 0 1.533 1.533h28.163a1.535 1.535 0 0 0 1.533-1.533v-4.885a1.535 1.535 0 0 0-1.533-1.533z"/>
        <path data-name="패스 15613" d="M196.194 111.468h-28.162a3.07 3.07 0 0 1-3.067-3.067v-4.885a3.07 3.07 0 0 1 3.067-3.067h28.162a3.07 3.07 0 0 1 3.067 3.067v4.885a3.07 3.07 0 0 1-3.067 3.067m-28.162-9.485a1.535 1.535 0 0 0-1.533 1.533v4.885a1.535 1.535 0 0 0 1.533 1.533h28.162a1.535 1.535 0 0 0 1.533-1.533v-4.885a1.535 1.535 0 0 0-1.533-1.533z"/>
        <path data-name="패스 15614" d="M149.747 115.317h-.021a.767.767 0 0 1-.743-.79c1.16-37.987-15.44-60.554-31.423-69.055h-29.2c-6.673 2.261-9.955 6.547-13.752 11.5a.767.767 0 0 1-1.217-.932c3.808-4.971 7.4-9.667 14.6-12.066l.118-.039h29.826l.167.088c4.812 2.531 14.011 8.7 21.552 21.606 7.789 13.329 11.442 29.8 10.857 48.941a.767.767 0 0 1-.766.743"/>
        <path data-name="패스 15615" d="M129.742 151.059H84.165a.767.767 0 1 1 0-1.533h45.577a.767.767 0 1 1 0 1.533"/>
        <path data-name="패스 15616" d="M102.991 120.019a1.533 1.533 0 0 1-1.533-1.533v-4.453a1.534 1.534 0 1 1 3.067 0v4.453a1.533 1.533 0 0 1-1.533 1.533"/>
        <path data-name="패스 15617" d="M102.991 86.207a1.533 1.533 0 0 1-1.533-1.533v-4.553a1.534 1.534 0 1 1 3.067 0v4.555a1.533 1.533 0 0 1-1.533 1.533"/>
        <path data-name="패스 15618" d="M101.256 115.679a15.806 15.806 0 0 1-6.441-1.374 1.533 1.533 0 1 1 1.269-2.792 12.558 12.558 0 0 0 6.7 1 9.593 9.593 0 0 0 4.532-1.812 4.357 4.357 0 0 0 1.819-3.857c-.168-1.86-1.546-3.527-3.88-4.695a60.503 60.503 0 0 0-2.04-.953c-4.334-1.964-10.269-4.652-9.28-10.825.743-4.642 3.957-7.209 9.05-7.229h.054a21.194 21.194 0 0 1 8.835 2.164 1.533 1.533 0 0 1-1.371 2.743 17.925 17.925 0 0 0-7.462-1.841h-.044c-3.562.013-5.536 1.534-6.034 4.647-.574 3.584 2.754 5.389 7.518 7.547.759.344 1.476.669 2.147 1 3.272 1.637 5.3 4.247 5.563 7.162a7.4 7.4 0 0 1-3.033 6.586 12.622 12.622 0 0 1-5.961 2.4 14.5 14.5 0 0 1-1.941.128"/>
    </g>
</svg>
