<svg xmlns="http://www.w3.org/2000/svg" width="54.15" height="43.08" viewBox="0 0 54.15 43.08">
    <path data-name="패스 15043" d="M21.767 38.156a13.165 13.165 0 0 1-8.967-3.854 21.3 21.3 0 0 1-6.177-12.165A21.3 21.3 0 0 1 8.639 8.644c2.089-3.856 5.3-6.312 9.029-6.918C25.381.475 32.975 7.596 34.598 17.6a21.3 21.3 0 0 1-2.016 13.493c-2.089 3.856-5.3 6.312-9.029 6.918a11.141 11.141 0 0 1-1.786.145zm-2.328-36.14a10.621 10.621 0 0 0-1.7.137c-3.6.583-6.692 2.961-8.715 6.7a20.862 20.862 0 0 0-1.971 13.214 20.862 20.862 0 0 0 6.045 11.916c3.1 2.9 6.787 4.181 10.384 3.6s6.691-2.967 8.715-6.697a20.862 20.862 0 0 0 1.969-13.216C32.703 8.647 26.3 2.016 19.439 2.016z"/>
    <path data-name="패스 15044" d="M22.118 33.665a9.682 9.682 0 0 1-6.71-3 17.812 17.812 0 0 1-3.2-19.742A8.711 8.711 0 0 1 26.85 8.548a16.841 16.841 0 0 1 4.631 9.373 16.84 16.84 0 0 1-1.431 10.363 9.3 9.3 0 0 1-6.658 5.276 7.95 7.95 0 0 1-1.274.105zM20.135 5.977a7.484 7.484 0 0 0-1.2.1 8.872 8.872 0 0 0-6.34 5.046 17.378 17.378 0 0 0 3.118 19.229 8.278 8.278 0 0 0 13.95-2.262 16.406 16.406 0 0 0 1.388-10.092 16.4 16.4 0 0 0-4.507-9.136 9.259 9.259 0 0 0-6.41-2.885z"/>
    <g data-name="그룹 28177" transform="translate(15.734 11.871)">
        <ellipse data-name="타원 153" cx="5.287" cy="7.129" rx="5.287" ry="7.129" transform="rotate(-9.212 10.507 .846)" style="fill:#ff754b"/>
        <path data-name="패스 15045" d="M6.869 15.238c-2.779 0-5.382-2.739-5.986-6.462a8.752 8.752 0 0 1 .748-5.386A4.94 4.94 0 0 1 5.178.59c3.02-.489 6.008 2.384 6.661 6.407s-1.274 7.694-4.294 8.184a4.21 4.21 0 0 1-.676.057zM5.259 1.105a4.432 4.432 0 0 0-3.166 2.522 8.227 8.227 0 0 0-.7 5.062c.606 3.738 3.324 6.417 6.06 5.974s4.467-3.846 3.861-7.584S7.988.66 5.254 1.105z"/>
    </g>
    <path data-name="패스 15046" d="M9.946 35.86c9.548 9.19 20.17 3.819 22.438-1.969-1.01 5.774-7.852 9.05-13.546 9.19-6.266 0-14.083-5.192-16.232-9.906C-5.3 15.826 6.743 3.616 12.751 1.905 1.472 7.216-.316 25.983 9.946 35.86z"/>
    <path data-name="패스 15047" d="M22.001 18.414a.218.218 0 0 1-.118-.4L38.89 7.14l3.4-2.136a.218.218 0 1 1 .232.369l-3.4 2.135L22.117 18.38a.217.217 0 0 1-.116.034z"/>
    <path data-name="패스 15048" d="M42.369 8.602a.484.484 0 0 1-.147-.023L38.94 7.53a.218.218 0 0 1 .133-.416l3.282 1.049a.044.044 0 0 0 .037-.005l5.906-3.937a.04.04 0 0 0 .018-.047.039.039 0 0 0-.038-.033l-3.27-.309a.48.48 0 0 1-.367-.724L46.196.503a.044.044 0 0 0-.056-.062l-6.913 3.272a.043.043 0 0 0-.024.033l-.4 2.726a.218.218 0 1 1-.432-.063l.4-2.726a.479.479 0 0 1 .269-.364L45.955.046a.48.48 0 0 1 .617.68l-1.555 2.605a.041.041 0 0 0 0 .042.042.042 0 0 0 .035.024l3.27.309a.48.48 0 0 1 .221.877L42.637 8.52a.477.477 0 0 1-.268.082z"/>
    <path data-name="패스 15049" d="M22.657 19.667a.218.218 0 0 1-.074-.423l21.29-7.625 3.777-1.363a.218.218 0 0 1 .148.41l-3.778 1.363-21.29 7.625a.217.217 0 0 1-.073.013z"/>
    <path data-name="패스 15050" d="M47.061 13.8a.478.478 0 0 1-.237-.065l-2.983-1.723a.218.218 0 0 1 .218-.378l2.983 1.723a.044.044 0 0 0 .037 0l6.608-2.591a.04.04 0 0 0 .028-.042.039.039 0 0 0-.03-.04l-3.129-1a.48.48 0 0 1-.2-.785l2.073-2.215a.044.044 0 0 0-.042-.072l-7.451 1.727a.043.043 0 0 0-.031.027l-.968 2.579a.218.218 0 0 1-.408-.153l.968-2.579a.478.478 0 0 1 .341-.3l7.451-1.727a.48.48 0 0 1 .459.8l-2.073 2.215a.044.044 0 0 0 .019.071l3.129 1a.48.48 0 0 1 .03.9l-6.608 2.591a.478.478 0 0 1-.184.037z"/>
    <path data-name="패스 15051" d="M41.804 20.186a.476.476 0 0 1-.313-.117l-2.33-2.017a.218.218 0 0 1 .286-.33l2.33 2.017a.042.042 0 0 0 .037.01l6.21-1.251a.044.044 0 0 0 .012-.081l-2.506-1.351a.48.48 0 0 1-.06-.806l2.125-1.592a.039.039 0 0 0 .015-.05.04.04 0 0 0-.043-.029l-6.782.348a.044.044 0 0 0-.035.021l-1.291 2.151a.218.218 0 1 1-.374-.224l1.291-2.151a.479.479 0 0 1 .387-.232l6.782-.348a.48.48 0 0 1 .312.863l-2.125 1.592a.044.044 0 0 0 .005.073l2.506 1.351a.48.48 0 0 1-.133.893l-6.21 1.251a.487.487 0 0 1-.096.009z"/>
    <path data-name="패스 15052" d="M23.014 20.92a.218.218 0 0 1-.037-.433l19.861-3.432a.218.218 0 1 1 .074.43l-19.861 3.432a.218.218 0 0 1-.037.003z"/>
</svg>
