<svg xmlns="http://www.w3.org/2000/svg" width="49.863" height="43.08" viewBox="0 0 49.863 43.08">
    <path data-name="패스 15034" d="m3.438 32.274-1.6-2.93 15.227-8.479.266 2.8.355.8z"/>
    <path data-name="패스 15035" d="M10.485 43.08a2.259 2.259 0 0 1-1.969-.965l-.012-.02L.421 27.342c-.916-1.832-.159-2.837.636-3.359l.02-.012 7.344-4.041a.3.3 0 0 1 .289.525l-7.334 4.04c-.864.572-1 1.415-.422 2.579l8.067 14.722c.674 1.014 2.183.688 2.644.391l.016-.01 11.677-6.525a.129.129 0 0 0 .062-.081.133.133 0 0 0-.016-.1 5.21 5.21 0 0 1-.728-1.314c-.04-.2-.191-2-.254-2.76a.128.128 0 0 0-.056-.1l-3.22-2.173a.728.728 0 0 1-.315-.514l-.319-2.592a.129.129 0 0 0-.021-.056L17.1 23.875a.73.73 0 0 1-.12-.346l-.2-2.5a.129.129 0 0 0-.05-.092l-1.866-1.43a.723.723 0 0 1-.19-.218l-1.067-1.878a.3.3 0 0 1 .521-.3l1.067 1.878a.128.128 0 0 0 .034.038l1.866 1.429a.728.728 0 0 1 .283.52l.2 2.5a.128.128 0 0 0 .021.061l1.391 2.087a.731.731 0 0 1 .117.315l.319 2.591a.128.128 0 0 0 .055.091l3.22 2.173a.724.724 0 0 1 .318.543c.119 1.439.218 2.533.244 2.685a9.963 9.963 0 0 0 .649 1.12.737.737 0 0 1 .089.572.722.722 0 0 1-.35.456l-11.669 6.521a2.953 2.953 0 0 1-1.497.389z"/>
    <path data-name="패스 15036" d="m48.055 26.281-1.554 2.974-13.54-7.414.577-1.11 2-1.243z"/>
    <path data-name="패스 15037" d="M39.506 40.116a3.65 3.65 0 0 1-1.62-.428l-.01-.005-7.261-3.973a.3.3 0 1 1 .288-.525l7.256 3.971c1.76.877 2.683 0 3.147-.894l7.679-14.337a1.923 1.923 0 0 0-.489-2.615h-.009l-11.4-6.2a.128.128 0 0 0-.171.047l-.846 1.422a.129.129 0 0 0-.018.058l-.158 2.6a.727.727 0 0 1-.35.578l-1.837 1.11a.13.13 0 0 0-.047.05l-1.279 2.434a.721.721 0 0 1-.189.23l-1.767 1.414a.128.128 0 0 0-.048.1v4.37a.729.729 0 0 1-.3.59l-2.138 1.544a.128.128 0 0 0-.038.044l-.885 1.687a.3.3 0 1 1-.53-.278l.885-1.687a.732.732 0 0 1 .218-.251l2.138-1.544a.129.129 0 0 0 .053-.1v-4.37a.724.724 0 0 1 .273-.568l1.767-1.414a.126.126 0 0 0 .033-.04l1.279-2.435a.728.728 0 0 1 .268-.284l1.837-1.11a.128.128 0 0 0 .062-.1l.158-2.6a.729.729 0 0 1 .1-.328l.846-1.422a.725.725 0 0 1 .972-.267l11.4 6.194a2.515 2.515 0 0 1 .752 3.415l-.006.011-7.68 14.339a2.585 2.585 0 0 1-2.335 1.567z"/>
    <circle data-name="타원 151" cx="1.776" cy="1.776" r="1.776" transform="rotate(-85.935 25.765 14.532)"/>
    <path data-name="패스 15038" d="M13.114 38.444a1.776 1.776 0 1 1 1.776-1.776 1.778 1.778 0 0 1-1.776 1.776zm0-3.124a1.348 1.348 0 1 0 1.348 1.348 1.349 1.349 0 0 0-1.348-1.347z"/>
    <path data-name="패스 15039" d="M25.325 20.865a10.432 10.432 0 1 1 10.434-10.433 10.444 10.444 0 0 1-10.434 10.433zm0-20.266a9.833 9.833 0 1 0 9.833 9.833A9.845 9.845 0 0 0 25.325.6z"/>
    <g data-name="그룹 28174" transform="translate(23.869 13.949)">
        <circle data-name="타원 152" cx="1.199" cy="1.199" r="1.199" transform="translate(.257 .257)" style="fill:#ff754b"/>
        <path data-name="패스 15040" d="M1.455 2.911A1.455 1.455 0 1 1 2.91 1.456a1.457 1.457 0 0 1-1.455 1.455zm0-2.4a.942.942 0 1 0 .942.942.943.943 0 0 0-.942-.94z"/>
    </g>
    <g data-name="그룹 28175">
        <path data-name="패스 15041" d="M280.778 50.846c-1.363 0-1.508 2.9-1.418 4.378s.544 4.323 1.418 4.323 1.363-2.627 1.472-4.323c.093-1.44-.119-4.378-1.472-4.378z" transform="translate(-255.479 -46.495)" style="fill:#ff754b"/>
        <path data-name="패스 15042" d="M25.3 13.308c-.526 0-.935-.589-1.251-1.8a15.733 15.733 0 0 1-.423-2.765c-.033-.533-.148-3.241.813-4.263a1.147 1.147 0 0 1 1.726.007c.841.9.932 3.176.862 4.256-.029.469-.333 4.565-1.727 4.565zm0-8.7a.646.646 0 0 0-.486.226c-.592.63-.766 2.4-.675 3.879.129 2.1.693 4.082 1.161 4.082.5 0 1.078-1.946 1.216-4.083.072-1.121-.061-3.164-.725-3.872a.654.654 0 0 0-.491-.233z"/>
    </g>
</svg>
