<svg xmlns="http://www.w3.org/2000/svg" width="62.551" height="43.081" viewBox="0 0 62.551 43.081">
    <defs>
        <clipPath id="95r22u2s8a">
            <path data-name="사각형 11767" style="fill:none" d="M0 0h62.552v43.081H0z"/>
        </clipPath>
    </defs>
    <g data-name="그룹 29802" style="clip-path:url(#95r22u2s8a)">
        <path data-name="패스 15495" d="M49.801 12.619a53.344 53.344 0 0 0 .879 16.963.284.284 0 0 1-.277.346h-2.655a.279.279 0 0 1-.269-.2c-1.688-5.933.13-13.047 1.8-17.267a.275.275 0 0 1 .524.159"/>
        <path data-name="패스 15496" d="M53.105 23.811a7.784 7.784 0 0 1-3.44-.816.213.213 0 1 1 .187-.383 7.941 7.941 0 0 0 9.326-2.017c1.667-1.789 2.282-3.864 1.531-5.163a.213.213 0 1 1 .369-.213c.846 1.462.207 3.739-1.588 5.667a8.984 8.984 0 0 1-6.385 2.926"/>
        <path data-name="패스 15497" d="M56.933 17.311a.213.213 0 1 1 0-.426c1.063 0 3.34-.918 3.826-1.681a7.653 7.653 0 0 0 .761-7.3 4.855 4.855 0 0 0-3.713-2.92.213.213 0 0 1 .059-.422 5.273 5.273 0 0 1 4.041 3.164 8.075 8.075 0 0 1-.789 7.705c-.6.95-3.087 1.879-4.185 1.879"/>
        <path data-name="패스 15498" d="M37.857 11.487a.213.213 0 0 1-.213-.213 11.6 11.6 0 0 1 1.4-6.111c1.253-2.112 3.351-3.579 6.412-4.487 7.891-2.34 11.4 1.984 12.539 3.951a4.167 4.167 0 0 1 .011 3.907.213.213 0 0 1-.391-.169 3.722 3.722 0 0 0 .011-3.525c-1.091-1.88-4.449-6.01-12.049-3.756-6.652 1.972-7.5 6.481-7.5 10.189a.213.213 0 0 1-.213.213"/>
        <path data-name="패스 15499" d="M47.564 16.721a.212.212 0 0 1-.152-.064l-.209-.212a8.051 8.051 0 0 1-2.523-8 .213.213 0 1 1 .419.079 7.583 7.583 0 0 0 2.406 7.616l.212.214a.213.213 0 0 1-.152.362"/>
        <path data-name="패스 15500" d="M49.758 18.999a.213.213 0 0 1-.062-.417c.9-.273 3.026-1.626 4.685-4.791a.213.213 0 1 1 .377.2c-1.724 3.289-3.984 4.709-4.938 5a.214.214 0 0 1-.062.009"/>
        <path data-name="패스 15501" d="M54.05 32.135c-.684-1.91-4.584-2.689-6.82-2.88a.411.411 0 0 0-.446.411v4.607a.42.42 0 0 1-.423.418h-7.575c10.624 1.01 16.18 0 15.264-2.555"/>
        <path data-name="패스 15502" d="M41.017 36.449c2.044-1.2-3.063-1.205-6.024-1.372l-9.8 5.113c5.111.79 13.776-2.544 15.82-3.742"/>
        <path data-name="패스 15503" d="M46.295 34.783H37.52a.213.213 0 1 1 0-.426h8.775a.21.21 0 0 0 .211-.209V22.159a.207.207 0 0 0-.078-.162l-5.647-4.565a.213.213 0 0 1 .268-.332l5.647 4.565a.631.631 0 0 1 .236.493v11.989a.637.637 0 0 1-.638.635"/>
        <path data-name="패스 15504" d="m39.959 16.772-5.084 6.66a.42.42 0 0 1-.673-.007l-4.876-6.66a.423.423 0 0 1 .339-.674h5.055a.422.422 0 0 0 .421-.423v-1.1a.422.422 0 0 1 .421-.423h1.897a.422.422 0 0 1 .421.423v1.1a.422.422 0 0 0 .421.423h1.334a.423.423 0 0 1 .334.681"/>
        <path data-name="패스 15505" d="M43.431 29.55h-5.689a.634.634 0 0 1-.632-.635v-1.089a.209.209 0 0 0-.038-.121l-.579-.826a.636.636 0 0 1-.115-.366v-2a.633.633 0 0 1 .146-.4c1.245-1.493 2.565-2.217 3.928-2.153a4.855 4.855 0 0 1 3.5 2.183.615.615 0 0 1 .107.35v4.428a.634.634 0 0 1-.632.635m-3.143-7.174a4.634 4.634 0 0 0-3.437 2 .208.208 0 0 0-.048.132v2a.21.21 0 0 0 .038.121l.578.825a.634.634 0 0 1 .116.366v1.089a.207.207 0 0 0 .206.209h5.689a.207.207 0 0 0 .206-.209v-4.428a.191.191 0 0 0-.032-.109 4.387 4.387 0 0 0-3.173-2h-.144"/>
        <path data-name="패스 15506" d="M39.967 15.454a.213.213 0 0 1-.213-.213v-1.978a.206.206 0 0 0-.077-.16l-7.356-5.969a.213.213 0 1 1 .269-.331l7.357 5.969a.631.631 0 0 1 .234.491v1.978a.213.213 0 0 1-.213.213"/>
        <path data-name="패스 15507" d="m32.778 7.442-6.35 7.562a.423.423 0 0 1-.352.15l-11.287-.736a.422.422 0 0 1-.319-.664l3.851-5.5a.423.423 0 0 1 .293-.177l9.929-1.281a.423.423 0 0 0 .369-.419v-.925a.423.423 0 0 1 .423-.423h1.348a.423.423 0 0 1 .423.423v.876a.423.423 0 0 0 .423.423h.925a.423.423 0 0 1 .324.694"/>
        <path data-name="패스 15508" d="m8.738 37.28 5.556 2.607.183-8.665c0-1.759-1.09-3.6-2.564-3.809-1.363-.2-3.175 1.152-3.175 3.809z"/>
        <path data-name="패스 15509" d="M19.457 43.055a.213.213 0 0 1-.213-.213V27.733a.213.213 0 1 1 .426 0v15.108a.213.213 0 0 1-.213.213"/>
        <path data-name="패스 15510" d="M19.446 43.08 4.484 35.533a.632.632 0 0 1-.349-.568v-7.232a.213.213 0 0 1 .426 0v7.232a.208.208 0 0 0 .115.187l14.77 7.45 14.791-7.45a.209.209 0 0 0 .115-.187v-6.083a.213.213 0 0 1 .426 0v6.083a.633.633 0 0 1-.35.568z"/>
        <path data-name="패스 15511" d="m119.7 166.832 16.382.692a.423.423 0 0 0 .359-.672l-6.131-8.414a.422.422 0 0 0-.19-.146l-3.464-1.327a.422.422 0 0 1-.271-.395v-2.081a.423.423 0 0 0-.394-.422l-3.652-.25a.423.423 0 0 0-.451.422v.6a.423.423 0 0 1-.568.4L110 151.092a.423.423 0 0 0-.5.63l9.864 14.92a.423.423 0 0 0 .334.189" transform="translate(-100.097 -138.187)" style="fill:#ff754b"/>
        <path data-name="패스 15512" d="M36 29.55h-.027l-16.382-.692a.638.638 0 0 1-.5-.284l-9.864-14.92a.636.636 0 0 1 .748-.948l11.322 4.147a.209.209 0 0 0 .281-.2v-.6a.636.636 0 0 1 .679-.634l3.652.25a.638.638 0 0 1 .592.634v2.081a.21.21 0 0 0 .134.2l3.464 1.327a.634.634 0 0 1 .286.219l6.131 8.414a.636.636 0 0 1-.513 1.011m-16.392-1.118 16.382.692a.2.2 0 0 0 .193-.111.206.206 0 0 0-.015-.222l-6.131-8.414a.21.21 0 0 0-.094-.072l-3.464-1.327a.639.639 0 0 1-.408-.594v-2.09a.21.21 0 0 0-.2-.209l-3.652-.25a.209.209 0 0 0-.224.209v.6a.636.636 0 0 1-.854.6L9.822 13.102a.209.209 0 0 0-.246.313l9.864 14.92a.21.21 0 0 0 .168.097z"/>
        <path data-name="패스 15513" d="M3.608 27.188H.636a.635.635 0 0 1-.525-.993l9.057-13.267a.213.213 0 1 1 .352.24L.463 26.434a.209.209 0 0 0 .173.327h2.972a.21.21 0 0 0 .17-.087l5.885-8.133a.213.213 0 1 1 .345.25l-5.885 8.132a.637.637 0 0 1-.515.263"/>
    </g>
</svg>
