<svg xmlns="http://www.w3.org/2000/svg" width="13.5" height="13.5" viewBox="0 0 13.5 13.5">
    <defs>
        <clipPath id="tp64igndka">
            <path data-name="사각형 11782" style="fill:#fff" d="M0 0h13.5v13.5H0z"/>
        </clipPath>
    </defs>
    <g data-name="그룹 29858" style="clip-path:url(#tp64igndka)">
        <path data-name="패스 15671" d="M13.227 3.14 10.251.163A.556.556 0 0 0 9.856 0H.558A.558.558 0 0 0 0 .558v12.275a.558.558 0 0 0 .558.558h12.275a.558.558 0 0 0 .558-.558v-9.3a.556.556 0 0 0-.163-.394m-8.88-2.023h4.695v1.753H4.348zm7.927 11.159H1.116V1.116h2.116v2.311a.558.558 0 0 0 .558.558H9.6a.558.558 0 0 0 .558-.558V1.649l2.116 2.116zM6.7 5.519a2.325 2.325 0 1 0 2.32 2.325A2.325 2.325 0 0 0 6.7 5.519m0 3.534a1.209 1.209 0 1 1 1.2-1.209 1.209 1.209 0 0 1-1.2 1.209" style="fill:#fff"/>
    </g>
</svg>
