<svg xmlns="http://www.w3.org/2000/svg" width="13.016" height="13" viewBox="0 0 13.016 13">
    <defs>
        <clipPath id="amqrs0ywpa">
            <path data-name="사각형 11757" style="fill:#211d1d" d="M0 0h13.016v13H0z"/>
        </clipPath>
    </defs>
    <g data-name="그룹 29786" style="clip-path:url(#amqrs0ywpa)">
        <path data-name="패스 15491" d="M12.365 6.492a.615.615 0 0 0-.651.651v3.9a.615.615 0 0 1-.651.651H1.952a.615.615 0 0 1-.651-.651v-3.9a.615.615 0 0 0-.651-.651.615.615 0 0 0-.65.651v3.9A1.918 1.918 0 0 0 1.952 13h9.111a1.918 1.918 0 0 0 1.952-1.952v-3.9a.615.615 0 0 0-.651-.651M4.36 3.693l1.5-1.5v6.251a.615.615 0 0 0 .651.651.615.615 0 0 0 .651-.651V2.2l1.5 1.5a.644.644 0 0 0 .911-.911l-2.6-2.6c-.065-.065-.13-.13-.2-.13a.713.713 0 0 0-.521 0c-.065 0-.13.065-.2.13l-2.6 2.6a.644.644 0 0 0 .911.911" style="fill:#211d1d"/>
    </g>
</svg>
